<svg width="16" height="16" viewBox="0 0 16 16" fill="none" xmlns="http://www.w3.org/2000/svg">
<g id="003-whatsapp 1" clip-path="url(#clip0_488_17571)">
<path id="Vector" d="M7.99571 0.00485614C3.58004 0.00579309 0.00119302 3.58618 0.00212996 8.00184C0.00244228 9.53085 0.441214 11.0277 1.26635 12.3149L0.0224304 15.5424C-0.0438116 15.714 0.0416378 15.9069 0.213286 15.9731C0.25167 15.9879 0.292427 15.9955 0.333559 15.9954C0.371724 15.9956 0.409608 15.9891 0.445493 15.9761L3.77686 14.7868C7.52502 17.1212 12.4559 15.9751 14.7903 12.2269C17.1247 8.47872 15.9786 3.54785 12.2304 1.21349C10.9598 0.422141 9.49261 0.00338826 7.99571 0.00485614Z" fill="#5D6C7B"/>
<path id="Vector_2" d="M11.8075 9.36606C11.8075 9.36606 10.9913 8.9663 10.4803 8.6998C9.90197 8.40197 9.22238 8.95964 8.90257 9.2768C8.40483 9.0856 7.95022 8.79702 7.56536 8.42796C7.19623 8.04316 6.90765 7.58855 6.71651 7.09075C7.03367 6.77028 7.59 6.09134 7.29352 5.51303C7.03033 5.00133 6.62725 4.18516 6.62725 4.18516C6.57069 4.07291 6.45579 4.00205 6.33009 4.00192H5.66383C4.69352 4.16951 3.98804 5.01613 3.99815 6.00074C3.99815 7.04678 5.25007 9.05627 6.09426 9.90109C6.93845 10.7459 8.94791 11.9972 9.99461 11.9972C10.9792 12.0073 11.8258 11.3018 11.9934 10.3315V9.66526C11.9935 9.53821 11.9214 9.42218 11.8075 9.36606Z" fill="#F7F7F7"/>
</g>
<defs>
<clipPath id="clip0_488_17571">
<rect width="16" height="16" fill="white"/>
</clipPath>
</defs>
</svg>
