<svg width="20" height="20" viewBox="0 0 20 20" fill="none" xmlns="http://www.w3.org/2000/svg">
<g id="018-youtube 1" clip-path="url(#clip0_488_17701)">
<path id="Vector" d="M0.434207 14.8951C0.842541 16.3434 2.09171 16.6084 2.17504 16.6592C4.23087 17.2192 15.7542 17.2209 17.8409 16.6592C19.27 16.2459 19.5325 14.9784 19.5817 14.8951C20.1259 12.0001 20.1617 8.2259 19.5567 4.94091L19.5817 5.10424C19.1734 3.65591 17.9242 3.3909 17.8409 3.34007C15.8125 2.78924 4.25921 2.7684 2.17504 3.34007C0.745874 3.75424 0.483374 5.02091 0.434207 5.10424C-0.148293 8.14674 -0.177459 11.6376 0.434207 14.8951ZM8.00587 13.0426V6.96507L13.2275 10.0084L8.00587 13.0426Z" fill="#E53935"/>
</g>
<defs>
<clipPath id="clip0_488_17701">
<rect width="20" height="20" fill="white"/>
</clipPath>
</defs>
</svg>
