<svg width="26" height="11" viewBox="0 0 26 11" fill="none" xmlns="http://www.w3.org/2000/svg">
<path id="ApplePay" fill-rule="evenodd" clip-rule="evenodd" d="M5.27467 1.43964C4.98864 1.78226 4.53099 2.0525 4.07335 2.01389C4.01614 1.55063 4.2402 1.05842 4.50239 0.754404C4.78842 0.402133 5.28898 0.1512 5.69419 0.131897C5.74186 0.614461 5.55594 1.08737 5.27467 1.43964ZM5.68848 2.10557C5.2853 2.08208 4.91741 2.22831 4.62026 2.34642C4.42904 2.42243 4.26711 2.48679 4.14391 2.48679C4.00566 2.48679 3.83705 2.41899 3.64773 2.34285C3.39966 2.2431 3.11605 2.12905 2.81864 2.13452C2.13693 2.14417 1.5029 2.53505 1.15489 3.15756C0.439817 4.40257 0.968974 6.24596 1.66021 7.25934C1.99868 7.76121 2.40389 8.31133 2.93782 8.29203C3.17271 8.28306 3.34168 8.21048 3.51655 8.13537C3.71787 8.04889 3.92701 7.95906 4.25356 7.95906C4.56879 7.95906 4.76878 8.04655 4.96076 8.13054C5.1433 8.21039 5.3186 8.28708 5.57883 8.28238C6.13183 8.27273 6.47983 7.78051 6.8183 7.27865C7.18356 6.74001 7.34408 6.21432 7.36844 6.13455L7.37129 6.12532C7.37071 6.12473 7.3662 6.12264 7.35823 6.11895C7.23613 6.06236 6.30286 5.62987 6.29391 4.47013C6.28492 3.49669 7.03416 3.00348 7.1521 2.92585L7.15211 2.92584C7.15928 2.92112 7.16412 2.91793 7.1663 2.91627C6.68959 2.20208 5.94591 2.12487 5.68848 2.10557ZM9.51633 8.22935V0.70619H12.3051C13.7448 0.70619 14.7507 1.70992 14.7507 3.17691C14.7507 4.64391 13.7257 5.65729 12.267 5.65729H10.67V8.22935H9.51633ZM10.6706 1.69052H12.0007C13.0018 1.69052 13.5738 2.23099 13.5738 3.18164C13.5738 4.13229 13.0018 4.67759 11.9959 4.67759H10.6706V1.69052ZM18.5597 7.32688C18.2546 7.91561 17.5824 8.28718 16.8578 8.28718C15.7852 8.28718 15.0368 7.64055 15.0368 6.66577C15.0368 5.70064 15.7614 5.1457 17.101 5.06366L18.5406 4.9768V4.5618C18.5406 3.94894 18.145 3.61597 17.4394 3.61597C16.8578 3.61597 16.4336 3.91999 16.3477 4.38325H15.3085C15.3419 3.40847 16.2476 2.6991 17.4728 2.6991C18.7933 2.6991 19.6514 3.39882 19.6514 4.48459V8.22928H18.5836V7.32688H18.5597ZM17.1684 7.39453C16.5534 7.39453 16.1625 7.09534 16.1625 6.6369C16.1625 6.16399 16.5391 5.88893 17.259 5.8455L18.5414 5.76347V6.18812C18.5414 6.89266 17.9502 7.39453 17.1684 7.39453ZM23.1928 8.52364C22.7304 9.84103 22.2012 10.2753 21.0762 10.2753C20.9904 10.2753 20.7044 10.2657 20.6376 10.2464V9.34399C20.7091 9.35365 20.8855 9.3633 20.9761 9.3633C21.4862 9.3633 21.7722 9.14614 21.9486 8.58154L22.0535 8.24858L20.0989 2.77148H21.305L22.6637 7.21589H22.6875L24.0461 2.77148H25.2189L23.1928 8.52364Z" fill="#282739"/>
</svg>
