<svg width="152" height="45" viewBox="0 0 152 45" fill="none" xmlns="http://www.w3.org/2000/svg">
<g id="g13546">
<g id="g13548">
<path id="path13552" d="M145.749 44.8879H5.82358C2.74522 44.8879 0.226562 42.3693 0.226562 39.2909V5.70884C0.226562 2.63048 2.74522 0.11182 5.82358 0.11182H145.749C148.827 0.11182 151.346 2.63048 151.346 5.70884V39.2909C151.346 42.3693 148.827 44.8879 145.749 44.8879Z" fill="white"/>
<path id="path13556" d="M119.932 33.6939H122.021V19.7H119.932V33.6939ZM138.746 24.7409L136.352 30.808H136.28L133.795 24.7409H131.545L135.271 33.2208L133.147 37.9376H135.326L141.069 24.7409H138.746ZM126.9 32.1045C126.215 32.1045 125.262 31.7625 125.262 30.916C125.262 29.8359 126.45 29.4218 127.476 29.4218C128.395 29.4218 128.826 29.6199 129.384 29.8902C129.222 31.1862 128.106 32.1045 126.9 32.1045ZM127.152 24.4348C125.64 24.4348 124.074 25.1012 123.426 26.5774L125.279 27.3514C125.676 26.5774 126.413 26.3251 127.188 26.3251C128.268 26.3251 129.366 26.9736 129.384 28.1258V28.2696C129.006 28.0536 128.197 27.7296 127.206 27.7296C125.208 27.7296 123.173 28.8275 123.173 30.8801C123.173 32.7525 124.812 33.9589 126.647 33.9589C128.052 33.9589 128.826 33.3288 129.313 32.5908H129.384V33.6708H131.4V28.3055C131.4 25.8214 129.547 24.4348 127.152 24.4348ZM114.243 26.4444H111.272V21.6477H114.243C115.805 21.6477 116.691 22.9406 116.691 24.046C116.691 25.1305 115.805 26.4444 114.243 26.4444ZM114.19 19.7H109.185V33.6939H111.272V28.3921H114.19C116.504 28.3921 118.78 26.716 118.78 24.046C118.78 21.3761 116.504 19.7 114.19 19.7ZM86.8974 32.1071C85.4544 32.1071 84.2462 30.8989 84.2462 29.2395C84.2462 27.5626 85.4544 26.3361 86.8974 26.3361C88.3221 26.3361 89.4401 27.5626 89.4401 29.2395C89.4401 30.8989 88.3221 32.1071 86.8974 32.1071ZM89.2958 25.5245H89.2236C88.7549 24.9656 87.8528 24.4606 86.7168 24.4606C84.3363 24.4606 82.1544 26.5525 82.1544 29.2395C82.1544 31.9086 84.3363 33.9825 86.7168 33.9825C87.8528 33.9825 88.7549 33.4774 89.2236 32.9007H89.2958V33.5859C89.2958 35.4076 88.3221 36.3814 86.7531 36.3814C85.4727 36.3814 84.6792 35.4614 84.3542 34.6861L82.5331 35.4434C83.056 36.7058 84.4448 38.2568 86.7531 38.2568C89.2057 38.2568 91.2796 36.8138 91.2796 33.2973V24.7492H89.2958V25.5245ZM92.7222 33.6939H94.8141V19.6996H92.7222V33.6939ZM97.8981 29.0773C97.8439 27.2377 99.3228 26.3002 100.387 26.3002C101.217 26.3002 101.92 26.7147 102.154 27.3103L97.8981 29.0773ZM104.39 27.4904C103.994 26.4261 102.785 24.4606 100.314 24.4606C97.8618 24.4606 95.8242 26.3903 95.8242 29.2216C95.8242 31.8907 97.8439 33.9825 100.549 33.9825C102.731 33.9825 103.994 32.648 104.517 31.8727L102.894 30.7904C102.353 31.5841 101.613 32.1071 100.549 32.1071C99.485 32.1071 98.7277 31.62 98.2405 30.6645L104.606 28.0313L104.39 27.4904ZM53.6722 25.9215V27.9412H58.5052C58.3609 29.0773 57.9822 29.9068 57.405 30.4839C56.7019 31.1875 55.6018 31.9628 53.6722 31.9628C50.6965 31.9628 48.3702 29.5643 48.3702 26.5887C48.3702 23.6131 50.6965 21.2144 53.6722 21.2144C55.2773 21.2144 56.4492 21.8457 57.3149 22.6573L58.7396 21.2327C57.5314 20.0783 55.9262 19.1946 53.6722 19.1946C49.5963 19.1946 46.1699 22.513 46.1699 26.5887C46.1699 30.6645 49.5963 33.9825 53.6722 33.9825C55.8725 33.9825 57.5314 33.2615 58.8297 31.9086C60.1643 30.574 60.5792 28.6986 60.5792 27.1839C60.5792 26.7147 60.5433 26.2822 60.4707 25.9215H53.6722ZM66.0739 32.1071C64.6309 32.1071 63.3865 30.9168 63.3865 29.2216C63.3865 27.5083 64.6309 26.3361 66.0739 26.3361C67.5164 26.3361 68.7608 27.5083 68.7608 29.2216C68.7608 30.9168 67.5164 32.1071 66.0739 32.1071ZM66.0739 24.4606C63.4406 24.4606 61.2945 26.4624 61.2945 29.2216C61.2945 31.9628 63.4406 33.9825 66.0739 33.9825C68.7066 33.9825 70.8528 31.9628 70.8528 29.2216C70.8528 26.4624 68.7066 24.4606 66.0739 24.4606ZM76.4991 32.1071C75.0567 32.1071 73.8121 30.9168 73.8121 29.2216C73.8121 27.5083 75.0567 26.3361 76.4991 26.3361C77.9417 26.3361 79.1862 27.5083 79.1862 29.2216C79.1862 30.9168 77.9417 32.1071 76.4991 32.1071ZM76.4991 24.4606C73.866 24.4606 71.7203 26.4624 71.7203 29.2216C71.7203 31.9628 73.866 33.9825 76.4991 33.9825C79.132 33.9825 81.2781 31.9628 81.2781 29.2216C81.2781 26.4624 79.132 24.4606 76.4991 24.4606Z" fill="#282739"/>
<g id="g13558">
<g id="g13560">
<path id="path13580" d="M11.9919 36.3685L11.9087 36.2889C11.5829 35.9442 11.3906 35.409 11.3906 34.716V34.8791V10.1224C11.3906 10.1202 11.3906 10.1185 11.3906 10.1167C11.3906 10.1188 11.3906 10.1206 11.3906 10.1228V10.2864C11.3906 9.53593 11.6148 8.97064 11.9905 8.63168L25.8597 22.5005L11.9919 36.3685ZM11.3906 10.1153C11.3906 10.0537 11.3923 9.99377 11.3954 9.93478C11.3923 9.99332 11.3906 10.0537 11.3906 10.1153ZM11.3954 9.93209C11.3954 9.93131 11.3954 9.93041 11.3958 9.92952C11.3954 9.93041 11.3954 9.93131 11.3954 9.93209ZM11.3958 9.92426C11.3958 9.92381 11.3958 9.92336 11.3958 9.92291C11.3958 9.92336 11.3958 9.92381 11.3958 9.92426Z" fill="url(#paint0_linear_488_17417)"/>
</g>
</g>
<g id="g13582">
<g id="g13584">
<path id="path13600" d="M30.4817 27.2892L30.5872 27.2293L36.0643 24.1172C36.5865 23.8204 36.9345 23.4605 37.1081 23.0797C36.935 23.4605 36.5868 23.8208 36.0643 24.1177L30.5872 27.2297L30.4817 27.2892ZM30.4831 27.1252L25.8594 22.5007L30.4826 17.877L36.0643 21.0481C36.7731 21.4508 37.1711 21.9699 37.2375 22.5003C37.2375 22.5007 37.2375 22.5016 37.2375 22.5024C37.1711 23.0315 36.7731 23.5511 36.0643 23.9537L30.4831 27.1252Z" fill="url(#paint1_linear_488_17417)"/>
</g>
</g>
<g id="g13602">
<g id="g13604">
<path id="path13616" d="M12.9749 36.8968C12.5875 36.8968 12.2494 36.7709 11.9858 36.533L11.9863 36.5326C12.2499 36.7704 12.5884 36.8968 12.9758 36.8968C13.0094 36.8968 13.0436 36.8959 13.0781 36.8942C13.0431 36.8959 13.0085 36.8968 12.9749 36.8968ZM12.9754 36.7328C12.588 36.7333 12.2499 36.6069 11.9863 36.369V36.3687L25.8541 22.5007L30.4778 27.1252L14.2294 36.3573C13.7799 36.6122 13.354 36.7328 12.9754 36.7328ZM11.9824 36.53C11.9578 36.5077 11.9338 36.4841 11.9102 36.4596L11.9824 36.53Z" fill="url(#paint2_linear_488_17417)"/>
</g>
</g>
<g id="g13618">
<g id="g13620">
<path id="path13638" d="M25.8575 22.5009L11.9883 8.63201C12.2519 8.39459 12.5895 8.26865 12.9765 8.26865C13.3561 8.26865 13.7823 8.38977 14.2328 8.64511L30.4807 17.8772L25.8575 22.5009ZM30.5853 17.7727L14.2328 8.48168C13.7823 8.22623 13.3561 8.10511 12.9765 8.10511C12.9747 8.10511 12.9735 8.10511 12.9717 8.10511C12.9739 8.10511 12.9756 8.10511 12.9783 8.10511C13.357 8.10511 13.7828 8.22578 14.2328 8.48123L30.5853 17.7727Z" fill="url(#paint3_linear_488_17417)"/>
</g>
</g>
<path id="path13640" d="M13.0832 36.8943C13.4352 36.8741 13.8248 36.753 14.2345 36.5208L30.4816 27.2892L14.2345 36.5208C13.8252 36.7534 13.4352 36.8741 13.0832 36.8943ZM11.9909 36.533L11.9875 36.53C11.9887 36.5309 11.99 36.5321 11.9909 36.533ZM11.9153 36.4596L11.9082 36.4527V36.4522C11.9109 36.4548 11.913 36.4574 11.9153 36.4596Z" fill="white"/>
<g id="g13642">
<g id="g13644">
<path id="path13660" d="M30.4766 27.2892L30.582 27.2293L30.4766 27.2892Z" fill="url(#paint4_linear_488_17417)"/>
</g>
</g>
<g id="g13662">
<g id="g13664">
<path id="path13676" d="M12.979 36.8968C12.5915 36.8968 12.253 36.7704 11.9894 36.5326L11.989 36.533C11.9881 36.5321 11.9867 36.5309 11.9855 36.53L11.9133 36.4596C11.9111 36.4573 11.9089 36.4548 11.9062 36.4522L11.9894 36.369C12.253 36.6069 12.5911 36.7333 12.9785 36.7328C13.3571 36.7328 13.783 36.6122 14.2326 36.3573L30.481 27.1252L30.5851 27.2293L30.4796 27.2892L14.2326 36.5208C13.8229 36.753 13.4332 36.8741 13.0813 36.8942C13.0467 36.8959 13.0126 36.8968 12.979 36.8968Z" fill="url(#paint5_linear_488_17417)"/>
</g>
</g>
<path id="path13678" d="M11.9087 36.4526C11.5829 36.108 11.3906 35.5728 11.3906 34.8798V34.8793C11.3906 35.5728 11.5829 36.1075 11.9087 36.4522V36.4526Z" fill="white"/>
<g id="g13680">
<g id="g13682">
<path id="path13702" d="M11.9087 36.4522C11.5829 36.1075 11.3906 35.5728 11.3906 34.8793V34.7162C11.3906 35.4093 11.5829 35.9444 11.9087 36.2891L11.9919 36.3687L11.9087 36.4522Z" fill="url(#paint6_linear_488_17417)"/>
</g>
</g>
<g id="g13704">
<g id="g13706">
<path id="path13718" d="M11.9062 36.4522L11.9894 36.3687V36.369L11.9062 36.4522Z" fill="url(#paint7_linear_488_17417)"/>
</g>
</g>
<path id="path13720" d="M37.1074 23.0797C37.1935 22.8907 37.2368 22.6966 37.2368 22.5024C37.2368 22.5021 37.2368 22.5016 37.2368 22.5016C37.2368 22.6962 37.1935 22.8903 37.1074 23.0797Z" fill="white"/>
<g id="g13722">
<g id="g13724">
<path id="path13740" d="M30.5865 27.2291L30.4824 27.125L36.0637 23.9535C36.7725 23.5509 37.1704 23.0314 37.2369 22.5022C37.2369 22.6964 37.1936 22.8905 37.1075 23.0795C36.9339 23.4603 36.5859 23.8202 36.0637 24.1171L30.5865 27.2291Z" fill="url(#paint8_linear_488_17417)"/>
</g>
</g>
<path id="path13742" d="M37.2368 22.5007V22.5002C37.2363 21.9147 36.845 21.3292 36.0635 20.8849L30.5864 17.7729H30.5859L30.5864 17.7725L36.0635 20.8845C36.8459 21.3288 37.2377 21.9151 37.2368 22.5007Z" fill="#282739"/>
<g id="g13744">
<g id="g13746">
<path id="path13762" d="M37.2373 22.5001C37.1708 21.9697 36.7729 21.4506 36.0641 21.0479L30.4824 17.8768L30.5865 17.7727H30.587L36.0641 20.8848C36.8456 21.3291 37.2369 21.9145 37.2373 22.5001Z" fill="url(#paint9_linear_488_17417)"/>
</g>
</g>
<path id="path13764" d="M11.3906 10.1169C11.3906 10.1164 11.3906 10.116 11.3906 10.1155C11.3906 10.116 11.3906 10.1164 11.3906 10.1169ZM11.3954 9.93495C11.3954 9.93405 11.3954 9.93316 11.3954 9.93226C11.3954 9.93316 11.3954 9.93405 11.3954 9.93495ZM11.3958 9.92969C11.3958 9.9279 11.3958 9.92622 11.3958 9.92443C11.3958 9.92622 11.3958 9.9279 11.3958 9.92969ZM11.3958 9.92308C11.4606 8.77312 12.0859 8.10887 12.9704 8.10495C12.5869 8.10719 12.2529 8.23312 11.9914 8.46876V8.46831L11.9883 8.47144C11.9607 8.49629 11.9345 8.5226 11.9087 8.54969C11.6148 8.86055 11.4295 9.32622 11.3958 9.92308Z" fill="#282739"/>
<g id="g13766">
<g id="g13768">
<path id="path13788" d="M11.3906 10.2867V10.1232C11.3906 10.121 11.3906 10.1192 11.3906 10.117C11.3906 10.1166 11.3906 10.1161 11.3906 10.1157C11.3906 10.054 11.3923 9.99368 11.3954 9.93514C11.3954 9.93424 11.3954 9.93335 11.3954 9.93245C11.3954 9.93167 11.3954 9.93077 11.3958 9.92988C11.3958 9.92809 11.3958 9.92641 11.3958 9.92462C11.3958 9.92417 11.3958 9.92372 11.3958 9.92327C11.4295 9.32641 11.6148 8.86073 11.9087 8.54988L11.9905 8.63204C11.6148 8.971 11.3906 9.53629 11.3906 10.2867ZM11.9883 8.47163L11.9914 8.4685C11.9905 8.46984 11.9892 8.47073 11.9883 8.47163Z" fill="url(#paint10_linear_488_17417)"/>
</g>
</g>
<g id="g13792">
<g id="g13794">
<path id="path13812" d="M30.4805 17.877L14.2326 8.6449C13.7821 8.38956 13.3559 8.26844 12.9763 8.26844C12.5893 8.26844 12.2517 8.39438 11.9881 8.6318L11.9062 8.54964C11.9321 8.52255 11.9583 8.49624 11.9858 8.47139C11.9867 8.4705 11.9881 8.4696 11.989 8.46871C12.2505 8.23307 12.5845 8.10714 12.968 8.1049C12.9689 8.1049 12.9701 8.1049 12.9715 8.1049C12.9733 8.1049 12.9745 8.1049 12.9763 8.1049C13.3559 8.1049 13.7821 8.22602 14.2326 8.48147L30.5851 17.7725L30.5846 17.7728L30.4805 17.877Z" fill="url(#paint11_linear_488_17417)"/>
</g>
</g>
<path id="path13814" d="M48.9179 11.2686C48.931 12.3311 48.7181 13.1881 48.2808 13.8389H51.6761V8.77266H48.9179V11.2686ZM47.37 16.0894H46.5449V13.8389H47.2017C47.7832 13.3377 48.0674 12.4816 48.0557 11.2686V7.94755H52.5398V13.8389H53.2898V16.0894H52.4642V14.664H47.37V16.0894Z" fill="#282739"/>
<path id="path13816" d="M48.9166 11.2686L48.8047 11.2699L48.8056 11.3604C48.8051 12.3657 48.5952 13.1686 48.1863 13.7763L48.0692 13.9508H51.7868V8.66072H48.8047V11.2695V11.2699L48.9166 11.2686H49.0285V8.8846H51.5629V13.7269H48.2794V13.8389L48.3722 13.901C48.8125 13.2459 49.0294 12.3958 49.0294 11.3604L49.0285 11.2673L48.9166 11.2686H49.0285H48.9166ZM47.3687 16.0894V15.9775H46.6555V13.9508H47.2003H47.2419L47.2733 13.9237C47.8785 13.4016 48.1667 12.5318 48.1667 11.342L48.1663 11.2677V11.2686V8.05949H52.4265V13.9508H53.1765V15.9775H52.5748V14.664V14.552H47.2568V16.0894H47.3687V15.9775V16.0894H47.4806V14.7759H52.3509V16.0894V16.2014H53.2884H53.4004V13.7269H52.6504V7.83561H47.9424V11.269V11.2695L47.9428 11.342C47.9424 12.5004 47.6616 13.2949 47.1272 13.7536L47.2003 13.8389V13.7269H46.5436H46.4316V16.2014H47.3687H47.4806V16.0894H47.3687Z" fill="#282739"/>
<path id="path13818" d="M55.7321 13.2336C56.2296 13.7369 56.8375 13.9883 57.5568 13.9883C58.276 13.9883 58.8848 13.7369 59.381 13.2336C59.8787 12.7304 60.1279 12.087 60.1279 11.3057C60.1279 10.5244 59.8787 9.88103 59.381 9.37775C58.8848 8.87446 58.276 8.62304 57.5568 8.62304C56.8375 8.62304 56.2296 8.87446 55.7321 9.37775C55.2357 9.88103 54.9866 10.5244 54.9866 11.3057C54.9866 12.087 55.2357 12.7304 55.7321 13.2336ZM60.0195 13.7959C59.3592 14.4749 58.5384 14.8139 57.5568 14.8139C56.5751 14.8139 55.7539 14.4749 55.0949 13.7959C54.4347 13.1177 54.1055 12.2874 54.1055 11.3057C54.1055 10.324 54.4347 9.4936 55.0949 8.81547C55.7539 8.13633 56.5751 7.79704 57.5568 7.79704C58.5327 7.79704 59.3518 8.13812 60.015 8.81984C60.6775 9.50155 61.0089 10.3301 61.0089 11.3057C61.0089 12.2874 60.6788 13.1177 60.0195 13.7959Z" fill="#282739"/>
<path id="path13820" d="M55.7307 13.2338L55.6511 13.3125C56.1666 13.8359 56.8098 14.1018 57.5555 14.1005C58.3006 14.1018 58.9451 13.8359 59.4592 13.3125C59.9783 12.7886 60.2394 12.1108 60.2385 11.3059C60.2394 10.5009 59.9783 9.82311 59.4592 9.29923C58.9451 8.7758 58.3006 8.50994 57.5555 8.51129C56.8098 8.50994 56.1666 8.7758 55.6511 9.29923C55.1334 9.82311 54.8724 10.5009 54.8733 11.3059C54.8724 12.1108 55.1334 12.7886 55.6511 13.3125L55.7307 13.2338L55.8108 13.1551C55.3358 12.6719 55.0984 12.064 55.0972 11.3059C55.0984 10.5477 55.3358 9.93987 55.8108 9.45662H55.8103C56.2895 8.97349 56.8619 8.73651 57.5555 8.73517C58.2485 8.73651 58.8222 8.97349 59.3001 9.45662L59.3019 9.45841L59.3001 9.45662C59.7763 9.93987 60.0133 10.5477 60.0146 11.3059C60.0133 12.064 59.7763 12.6719 59.3001 13.1551C58.8222 13.6383 58.2485 13.8752 57.5555 13.8766C56.8619 13.8752 56.2895 13.6383 55.8103 13.1551L55.7307 13.2338ZM60.0182 13.7961L59.9381 13.7183C59.2966 14.3759 58.5113 14.7008 57.5555 14.7021C56.5992 14.7008 55.8142 14.3759 55.1736 13.7183C54.5334 13.0584 54.2173 12.2626 54.2161 11.3059C54.2173 10.3491 54.5334 9.55334 55.1736 8.89345C55.8142 8.2358 56.5992 7.9105 57.5555 7.90916C58.5056 7.9105 59.2888 8.23714 59.9338 8.89826C60.5765 9.56117 60.8944 10.3557 60.8957 11.3059C60.8944 12.2626 60.5774 13.0584 59.9381 13.7183L60.0182 13.7961L60.0985 13.8739C60.7772 13.177 61.1204 12.3124 61.1195 11.3059C61.1204 10.305 60.7763 9.44229 60.0942 8.74222C59.412 8.03946 58.5577 7.68405 57.5555 7.68528C56.548 7.68405 55.6909 8.03778 55.0132 8.73785V8.7374C54.3332 9.43479 53.9913 10.2993 53.9922 11.3059C53.9913 12.3124 54.3332 13.177 55.0132 13.8743V13.8739C55.6909 14.574 56.548 14.9269 57.5555 14.926C58.5625 14.9269 59.4195 14.574 60.0985 13.8739L60.0182 13.7961Z" fill="#282739"/>
<path id="path13822" d="M65.3527 14.8139C64.3645 14.8139 63.5359 14.4794 62.8668 13.8099C62.1965 13.141 61.8633 12.3061 61.8633 11.3057C61.8633 10.3052 62.1965 9.47043 62.8668 8.80148C63.5359 8.13196 64.3645 7.79704 65.3527 7.79704C66.365 7.79704 67.1879 8.16308 67.8197 8.89461L67.2185 9.47659C66.7629 8.90726 66.1397 8.62304 65.3527 8.62304C64.6203 8.62304 64.0023 8.8701 63.4995 9.3642C62.9958 9.85831 62.7444 10.5055 62.7444 11.3057C62.7444 12.1058 62.9958 12.7535 63.4995 13.2472C64.0023 13.7413 64.6203 13.9883 65.3527 13.9883C66.1594 13.9883 66.8469 13.6634 67.4165 13.0132L68.0165 13.6131C67.7096 13.9822 67.3256 14.2747 66.8621 14.4898C66.3999 14.7059 65.8958 14.8139 65.3527 14.8139Z" fill="#282739"/>
<path id="path13824" d="M65.3533 14.8141V14.7021C64.3901 14.7008 63.5964 14.3794 62.9466 13.7309C62.2972 13.0816 61.9767 12.2814 61.9758 11.3059C61.9767 10.3303 62.2972 9.53017 62.9466 8.8808C63.5964 8.23188 64.3901 7.9105 65.3533 7.90916C66.3389 7.91095 67.1225 8.25987 67.7355 8.96778L67.8203 8.89479L67.7426 8.81431L67.1413 9.39673L67.2191 9.47677L67.3065 9.40681C66.8317 8.81129 66.1667 8.50961 65.3533 8.51129C64.5955 8.51039 63.9435 8.77065 63.4219 9.28435C62.895 9.79994 62.6317 10.4829 62.633 11.3059C62.6317 12.1289 62.895 12.8127 63.4219 13.3274C63.9435 13.8411 64.5955 14.1014 65.3533 14.1005C66.1906 14.1018 66.9161 13.758 67.5011 13.0873L67.4171 13.0134L67.338 13.0926L67.938 13.6924L68.0171 13.6133L67.931 13.5421C67.6345 13.898 67.2655 14.1796 66.8155 14.3886C66.3681 14.5976 65.882 14.7017 65.3533 14.7021V14.8141V14.926C65.9112 14.926 66.4325 14.815 66.9099 14.5915C67.3875 14.3702 67.7854 14.0672 68.1032 13.6851L68.1684 13.6068L67.4964 12.9343L67.4115 12.8494L67.3329 12.9395C66.7792 13.5696 66.1295 13.8752 65.3533 13.8766C64.6458 13.8752 64.063 13.6417 63.5788 13.1673H63.5785C63.0975 12.6951 62.8578 12.0833 62.8569 11.3059C62.8578 10.5285 63.0975 9.91759 63.5785 9.44442H63.5788C64.063 8.97002 64.6458 8.73651 65.3533 8.73517C66.1137 8.73696 66.6948 9.00371 67.1317 9.54673L67.2086 9.643L67.8981 8.97528L67.9743 8.90174L67.9052 8.82181C67.2549 8.06621 66.3922 7.68405 65.3533 7.68528C64.3397 7.68438 63.4761 8.03297 62.7883 8.72252C62.097 9.41073 61.7506 10.281 61.752 11.3059C61.7506 12.3308 62.097 13.201 62.7883 13.8897C63.4761 14.5788 64.3397 14.9269 65.3533 14.926V14.8141Z" fill="#282739"/>
<path id="path13826" d="M71.507 14.664H70.6435V8.77272H68.7676V7.94761H73.3829V8.77272H71.507V14.664Z" fill="#282739"/>
<path id="path13828" d="M71.5076 14.664V14.5521H70.756V8.66078H68.8801V8.05955H73.2715V8.66078H71.3957V14.664H71.5076V14.5521V14.664H71.6195V8.88467H73.4954V7.94761V7.83567H68.6562V8.77272V8.88467H70.5321V14.776H71.5076H71.6195V14.664H71.5076Z" fill="#282739"/>
<path id="path13830" d="M75.2577 12.0369H77.4896L76.392 9.00757H76.3548L75.2577 12.0369ZM73.3535 14.664L75.8866 7.94761H76.8613L79.3939 14.664H78.4376L77.7899 12.8437H74.967L74.3103 14.664H73.3535Z" fill="#282739"/>
<path id="path13832" d="M75.2575 12.0369V12.1488H77.649L76.47 8.89563H76.3546H76.2759L75.098 12.1488H75.2575V12.0369L75.3629 12.0754L76.4601 9.04563L76.3546 9.00757V9.11951H76.3918V9.00757L76.2864 9.04563L77.3297 11.925H75.2575V12.0369L75.3629 12.0754L75.2575 12.0369ZM73.3533 14.664L73.4582 14.7034L75.9637 8.05955H76.7831L79.2318 14.5521H78.5161L77.8688 12.7317H74.8881L74.2312 14.5521H73.3533V14.664L73.4582 14.7034L73.3533 14.664V14.776H74.31H74.3887L75.0455 12.9556H77.711L78.3582 14.776H79.3937H79.5554L76.9384 7.83567H75.8864H75.8089L73.1914 14.776H73.3533V14.664Z" fill="#282739"/>
<path id="path13834" d="M80.3691 14.664V7.94761H85.2285V14.664H84.365V8.77272H81.2319V14.664H80.3691Z" fill="#282739"/>
<path id="path13836" d="M80.3698 14.664H80.4817V8.05955H85.1171V14.5521H84.4775V8.66078H81.1205V14.5521H80.3698V14.664H80.4817H80.3698V14.776H81.2325H81.3444V8.88467H84.2536V14.776H85.2291H85.341V7.83567H80.2578V14.776H80.3698V14.664Z" fill="#282739"/>
<path id="path13838" d="M86.7676 14.664V7.94761H87.6304V10.8271H90.9886V7.94761H91.8517V14.664H90.9886V11.6338H87.6304V14.664H86.7676Z" fill="#282739"/>
<path id="path13840" d="M86.7682 14.664H86.8801V8.05955H87.5191L87.5186 10.939H91.1012V8.05955H91.7404V14.5521H91.1007L91.1012 11.5219H87.5186V14.5521H86.7682V14.664H86.8801H86.7682V14.776H87.631H87.743V11.7457H90.8769V14.776H91.8523H91.9642V7.83567H90.9892H90.8769V10.7151H87.7425L87.743 7.83567H86.7682H86.6562V14.776H86.7682V14.664Z" fill="#282739"/>
<path id="path13842" d="M94.5954 13.2336C95.093 13.7369 95.7003 13.9883 96.4196 13.9883C97.1394 13.9883 97.748 13.7369 98.2444 13.2336C98.7415 12.7304 98.9913 12.087 98.9913 11.3057C98.9913 10.5244 98.7415 9.88103 98.2444 9.37775C97.748 8.87446 97.1394 8.62304 96.4196 8.62304C95.7003 8.62304 95.093 8.87446 94.5954 9.37775C94.0991 9.88103 93.8498 10.5244 93.8498 11.3057C93.8498 12.087 94.0991 12.7304 94.5954 13.2336ZM98.8828 13.7959C98.2226 14.4749 97.4018 14.8139 96.4196 14.8139C95.4385 14.8139 94.6173 14.4749 93.9583 13.7959C93.2981 13.1177 92.9688 12.2874 92.9688 11.3057C92.9688 10.324 93.2981 9.4936 93.9583 8.81547C94.6173 8.13633 95.4385 7.79704 96.4196 7.79704C97.3961 7.79704 98.2146 8.13812 98.8784 8.81984C99.5409 9.50155 99.8723 10.3301 99.8723 11.3057C99.8723 12.2874 99.5422 13.1177 98.8828 13.7959Z" fill="#282739"/>
<path id="path13844" d="M94.594 13.2338L94.5144 13.3125C95.03 13.8359 95.6732 14.1018 96.4183 14.1005C97.1638 14.1018 97.8079 13.8359 98.3226 13.3125C98.8417 12.7886 99.1028 12.1108 99.1019 11.3059C99.1028 10.5009 98.8417 9.82311 98.3226 9.29923C97.8079 8.7758 97.1638 8.50994 96.4183 8.51129C95.6732 8.50994 95.03 8.7758 94.5144 9.29923C93.9967 9.82311 93.7357 10.5009 93.7366 11.3059C93.7357 12.1108 93.9967 12.7886 94.5144 13.3125L94.594 13.2338L94.6736 13.1551C94.1988 12.6719 93.9613 12.064 93.9604 11.3059C93.9613 10.5477 94.1988 9.93987 94.6736 9.45662C95.1529 8.97349 95.7253 8.73651 96.4183 8.73517C97.1119 8.73651 97.6856 8.97349 98.1635 9.45662L98.1665 9.4602L98.1635 9.45662C98.6392 9.93987 98.8766 10.5477 98.878 11.3059C98.8766 12.064 98.6392 12.6719 98.1635 13.1551C97.6856 13.6383 97.1119 13.8752 96.4183 13.8766C95.7253 13.8752 95.1529 13.6383 94.6736 13.1551L94.594 13.2338ZM98.8814 13.7961L98.801 13.7183C98.1595 14.3759 97.3746 14.7008 96.4183 14.7021C95.4625 14.7008 94.6775 14.3759 94.037 13.7183L94.0339 13.7148L94.037 13.7183C93.3964 13.0584 93.0802 12.2626 93.0794 11.3059C93.0802 10.3491 93.3964 9.55334 94.037 8.89345C94.6775 8.2358 95.4625 7.9105 96.4183 7.90916C97.3686 7.9105 98.1517 8.23714 98.797 8.89826C99.4398 9.56117 99.7577 10.3557 99.7591 11.3059C99.7577 12.2626 99.4407 13.0584 98.801 13.7183L98.8814 13.7961L98.9619 13.8739C99.6405 13.177 99.9838 12.3124 99.9829 11.3059C99.9838 10.305 99.6393 9.44229 98.9576 8.74222C98.2754 8.03946 97.4205 7.68405 96.4183 7.68528C95.4113 7.68405 94.5543 8.03778 93.8765 8.73785V8.7374C93.1966 9.43479 92.8546 10.2993 92.8555 11.3059C92.8546 12.3124 93.1966 13.177 93.8765 13.8743V13.8739C94.5543 14.574 95.4113 14.9269 96.4183 14.926C97.4258 14.9269 98.2828 14.574 98.9619 13.8739L98.8814 13.7961Z" fill="#282739"/>
<path id="path13846" d="M103.402 14.664V7.94761H104.264V10.8271H107.622V7.94761H108.487V14.664H107.622V11.6338H104.264V14.664H103.402Z" fill="#282739"/>
<path id="path13848" d="M103.401 14.664H103.513V8.05955H104.151V10.939H107.733V8.05955H108.373V14.5521H107.733V11.5219H104.151V14.5521H103.401V14.664H103.513H103.401V14.776H104.263H104.375V11.7457H107.509V14.776H108.485H108.597V7.83567H107.621H107.509V10.7151H104.375V7.83567H103.401H103.289V14.776H103.401V14.664Z" fill="#282739"/>
<path id="path13850" d="M111.365 12.0369H113.597L112.5 9.00757H112.463L111.365 12.0369ZM109.461 14.664L111.994 7.94761H112.969L115.502 14.664H114.545L113.898 12.8437H111.074L110.418 14.664H109.461Z" fill="#282739"/>
<path id="path13852" d="M111.365 12.0369V12.1488H113.757L112.579 8.89563H112.463H112.385L111.206 12.1488H111.365V12.0369L111.47 12.0754L112.569 9.04563L112.463 9.00757V9.11951H112.5V9.00757L112.395 9.04563L113.438 11.925H111.365V12.0369L111.47 12.0754L111.365 12.0369ZM109.461 14.664L109.566 14.7034L112.072 8.05955H112.892L115.34 14.5521H114.625L113.977 12.7317H110.996L110.339 14.5521H109.461V14.664L109.566 14.7034L109.461 14.664V14.776H110.418H110.497L111.154 12.9556H113.819L114.466 14.776H115.503H115.664L113.047 7.83567H111.994H111.917L109.299 14.776H109.461V14.664Z" fill="#282739"/>
</g>
</g>
<defs>
<linearGradient id="paint0_linear_488_17417" x1="24.6299" y1="9.86124" x2="5.84354" y2="28.6476" gradientUnits="userSpaceOnUse">
<stop stop-color="#00A0FF"/>
<stop offset="0.00657445" stop-color="#00A1FF"/>
<stop offset="0.2601" stop-color="#00BEFF"/>
<stop offset="0.5122" stop-color="#00D2FF"/>
<stop offset="0.7604" stop-color="#00DFFF"/>
<stop offset="1" stop-color="#00E3FF"/>
</linearGradient>
<linearGradient id="paint1_linear_488_17417" x1="38.1012" y1="22.5014" x2="11.015" y2="22.5014" gradientUnits="userSpaceOnUse">
<stop stop-color="#FFE000"/>
<stop offset="0.4087" stop-color="#FFBD00"/>
<stop offset="0.7754" stop-color="#FFA500"/>
<stop offset="1" stop-color="#FF9C00"/>
</linearGradient>
<linearGradient id="paint2_linear_488_17417" x1="28.013" y1="25.0701" x2="2.53727" y2="50.5458" gradientUnits="userSpaceOnUse">
<stop stop-color="#FF3A44"/>
<stop offset="1" stop-color="#C31162"/>
</linearGradient>
<linearGradient id="paint3_linear_488_17417" x1="8.39354" y1="0.30914" x2="19.7695" y2="11.6851" gradientUnits="userSpaceOnUse">
<stop stop-color="#32A071"/>
<stop offset="0.0685" stop-color="#2DA771"/>
<stop offset="0.4762" stop-color="#15CF74"/>
<stop offset="0.8009" stop-color="#06E775"/>
<stop offset="1" stop-color="#00F076"/>
</linearGradient>
<linearGradient id="paint4_linear_488_17417" x1="38.0961" y1="22.5015" x2="11.0095" y2="22.5015" gradientUnits="userSpaceOnUse">
<stop stop-color="#CCB300"/>
<stop offset="0.4087" stop-color="#CC9700"/>
<stop offset="0.7754" stop-color="#CC8400"/>
<stop offset="1" stop-color="#CC7D00"/>
</linearGradient>
<linearGradient id="paint5_linear_488_17417" x1="28.0161" y1="25.0701" x2="2.54042" y2="50.5458" gradientUnits="userSpaceOnUse">
<stop stop-color="#CC2E36"/>
<stop offset="1" stop-color="#9C0E4E"/>
</linearGradient>
<linearGradient id="paint6_linear_488_17417" x1="24.6299" y1="9.86146" x2="5.84356" y2="28.6479" gradientUnits="userSpaceOnUse">
<stop stop-color="#008DE0"/>
<stop offset="0.00657445" stop-color="#008DE0"/>
<stop offset="0.2601" stop-color="#00A7E0"/>
<stop offset="0.5122" stop-color="#00B8E0"/>
<stop offset="0.7604" stop-color="#00C4E0"/>
<stop offset="1" stop-color="#00C7E0"/>
</linearGradient>
<linearGradient id="paint7_linear_488_17417" x1="28.0166" y1="25.0701" x2="2.54077" y2="50.5465" gradientUnits="userSpaceOnUse">
<stop stop-color="#E0333C"/>
<stop offset="1" stop-color="#AB0F56"/>
</linearGradient>
<linearGradient id="paint8_linear_488_17417" x1="38.1005" y1="22.5012" x2="11.0143" y2="22.5012" gradientUnits="userSpaceOnUse">
<stop stop-color="#E0C500"/>
<stop offset="0.4087" stop-color="#E0A600"/>
<stop offset="0.7754" stop-color="#E09100"/>
<stop offset="1" stop-color="#E08900"/>
</linearGradient>
<linearGradient id="paint9_linear_488_17417" x1="38.101" y1="22.5012" x2="11.0148" y2="22.5012" gradientUnits="userSpaceOnUse">
<stop stop-color="#FFE840"/>
<stop offset="0.4087" stop-color="#FFCE40"/>
<stop offset="0.7754" stop-color="#FFBC40"/>
<stop offset="1" stop-color="#FFB540"/>
</linearGradient>
<linearGradient id="paint10_linear_488_17417" x1="24.6299" y1="9.86159" x2="5.84355" y2="28.648" gradientUnits="userSpaceOnUse">
<stop stop-color="#40B8FF"/>
<stop offset="0.00657445" stop-color="#40B9FF"/>
<stop offset="0.2601" stop-color="#40CEFF"/>
<stop offset="0.5122" stop-color="#40DDFF"/>
<stop offset="0.7604" stop-color="#40E7FF"/>
<stop offset="1" stop-color="#40EAFF"/>
</linearGradient>
<linearGradient id="paint11_linear_488_17417" x1="8.39334" y1="0.308928" x2="19.7693" y2="11.6849" gradientUnits="userSpaceOnUse">
<stop stop-color="#65B895"/>
<stop offset="0.0685" stop-color="#62BD95"/>
<stop offset="0.4762" stop-color="#50DB97"/>
<stop offset="0.8009" stop-color="#44ED98"/>
<stop offset="1" stop-color="#40F498"/>
</linearGradient>
</defs>
</svg>
