<svg width="26" height="11" viewBox="0 0 26 11" fill="none" xmlns="http://www.w3.org/2000/svg">
<g id="GooglePay">
<g id="Pay">
<path id="Union" fill-rule="evenodd" clip-rule="evenodd" d="M12.0927 8.65929V5.71798H13.6107C14.2328 5.71798 14.7578 5.50954 15.1859 5.09845L15.2886 4.99423C16.0705 4.1431 16.0191 2.81719 15.1859 2.02976C14.7693 1.61288 14.1986 1.38707 13.6107 1.39865H11.1738V8.65929H12.0927ZM12.0923 4.82634V2.29033H13.6335C13.9645 2.29033 14.2785 2.41771 14.5125 2.64931C15.0091 3.13567 15.0205 3.94626 14.541 4.44999C14.307 4.69896 13.9759 4.83792 13.6335 4.82634H12.0923ZM19.5759 4.07937C19.1822 3.7146 18.6457 3.52932 17.9666 3.52932C17.0934 3.52932 16.4371 3.85356 16.0033 4.49624L16.8137 5.01155C17.1105 4.57151 17.5157 4.3515 18.0293 4.3515C18.3546 4.3515 18.6685 4.47308 18.9139 4.6931C19.1536 4.90154 19.2906 5.20262 19.2906 5.52107V5.7353C18.9368 5.53844 18.4916 5.43422 17.9437 5.43422C17.3046 5.43422 16.7909 5.58476 16.4085 5.89163C16.0262 6.1985 15.8321 6.6038 15.8321 7.11911C15.8207 7.5881 16.0205 8.03392 16.3743 8.335C16.7338 8.65924 17.1904 8.82136 17.7269 8.82136C18.3604 8.82136 18.8626 8.53765 19.2449 7.97023H19.2849V8.65924H20.1638V5.59634C20.1638 4.95365 19.9697 4.44413 19.5759 4.07937ZM17.0813 7.74452C16.893 7.60556 16.7788 7.37975 16.7788 7.13657C16.7788 6.86444 16.9044 6.63863 17.1498 6.45914C17.401 6.27966 17.7149 6.18702 18.0859 6.18702C18.5996 6.18123 18.9992 6.29703 19.2846 6.52862C19.2846 6.92234 19.1305 7.26395 18.8279 7.55345C18.554 7.83137 18.1829 7.9877 17.7948 7.9877C17.5379 7.99349 17.2868 7.90664 17.0813 7.74452ZM22.1382 10.8421L25.2085 3.69143H24.2098L22.7888 7.25806H22.7716L21.3164 3.69143H20.3176L22.3322 8.34079L21.1908 10.8421H22.1382Z" fill="#282739"/>
</g>
<g id="G">
<path id="Blue" d="M8.92598 5.08099C8.92598 4.79729 8.90315 4.51358 8.85749 4.23566H4.98242V5.83948H7.20246C7.11114 6.35479 6.81438 6.81799 6.38064 7.10749V8.14969H7.70467C8.48083 7.42594 8.92598 6.35479 8.92598 5.08099Z" fill="#4285F4"/>
<path id="Green" d="M4.98212 9.15715C6.08928 9.15715 7.02523 8.7866 7.70437 8.1497L6.38034 7.1075C6.00938 7.36226 5.5357 7.50701 4.98212 7.50701C3.9092 7.50701 3.00178 6.77168 2.67648 5.78738H1.3125V6.86432C2.00876 8.27129 3.42981 9.15715 4.98212 9.15715Z" fill="#34A853"/>
<path id="Yellow" d="M2.67623 5.78738C2.50499 5.27207 2.50499 4.71044 2.67623 4.18934V3.11819H1.31203C0.724114 4.29356 0.724114 5.68316 1.31203 6.85852L2.67623 5.78738Z" fill="#FBBC04"/>
<path id="Red" d="M4.98212 2.46976C5.56994 2.45818 6.13494 2.68399 6.55726 3.09508L7.7329 1.90235C6.98528 1.19597 6.00368 0.808038 4.98212 0.819618C3.42981 0.819618 2.00876 1.71128 1.3125 3.11824L2.67648 4.19518C3.00178 3.20509 3.9092 2.46976 4.98212 2.46976Z" fill="#EA4335"/>
</g>
</g>
</svg>
