<svg width="136" height="45" viewBox="0 0 136 45" fill="none" xmlns="http://www.w3.org/2000/svg">
<g id="Group">
<g id="Group_2">
<g id="Group_3">
<path id="Vector" d="M124.357 2.41797e-05H11.1816C10.7691 2.41797e-05 10.3615 2.41797e-05 9.95002 0.00227418C9.6056 0.00452418 9.26393 0.0110604 8.9162 0.0165617C8.16078 0.0254512 7.40714 0.09191 6.66182 0.21536C5.91754 0.341498 5.19658 0.579304 4.52333 0.920735C3.85089 1.26505 3.23647 1.71246 2.70234 2.24673C2.16542 2.77949 1.71785 3.39529 1.37685 4.07045C1.0349 4.74427 0.797799 5.46633 0.673722 6.21169C0.548465 6.95611 0.481064 7.70911 0.472122 8.46394C0.461682 8.80886 0.460579 9.15493 0.455078 9.4999V35.5034C0.460579 35.8528 0.461682 36.1912 0.472122 36.5406C0.481067 37.2954 0.548468 38.0483 0.673722 38.7927C0.797456 39.5385 1.03457 40.261 1.37685 40.9351C1.71769 41.608 2.16533 42.2213 2.70234 42.7511C3.23444 43.2878 3.84926 43.7355 4.52333 44.0772C5.19658 44.4195 5.91746 44.6587 6.66182 44.7868C7.40726 44.9093 8.16083 44.9758 8.9162 44.9857C9.26393 44.9934 9.6056 44.9978 9.95002 44.9978C10.3615 45 10.7691 45 11.1816 45H124.357C124.761 45 125.172 45 125.576 44.9978C125.919 44.9978 126.271 44.9934 126.613 44.9857C127.367 44.9763 128.119 44.9098 128.863 44.7868C129.61 44.6578 130.334 44.4187 131.01 44.0772C131.684 43.7353 132.298 43.2876 132.829 42.7511C133.365 42.2193 133.814 41.6064 134.159 40.9351C134.498 40.2605 134.733 39.5381 134.855 38.7927C134.981 38.0482 135.05 37.2954 135.064 36.5406C135.068 36.1912 135.068 35.8528 135.068 35.5034C135.077 35.0947 135.077 34.6883 135.077 34.2729V10.7282C135.077 10.3162 135.077 9.90749 135.068 9.4999C135.068 9.15493 135.068 8.80886 135.064 8.46389C135.05 7.709 134.981 6.95616 134.855 6.21164C134.733 5.46672 134.498 4.74471 134.159 4.07041C133.464 2.71712 132.363 1.61555 131.01 0.920634C130.334 0.580037 129.61 0.342295 128.863 0.215259C128.12 0.0912648 127.367 0.0247829 126.613 0.0164042C126.271 0.0109142 125.919 0.00432168 125.576 0.00212793C125.172 -0.00012207 124.761 -0.00012207 124.357 -0.00012207V2.41797e-05Z" fill="white"/>
</g>
<g id="&#60;Group&#62;">
<g id="&#60;Group&#62;_2">
<g id="&#60;Group&#62;_3">
<path id="&#60;Path&#62;" d="M28.5826 22.3753C28.5952 21.3989 28.8545 20.4415 29.3366 19.5922C29.8186 18.7429 30.5076 18.0293 31.3395 17.5179C30.811 16.7631 30.1138 16.142 29.3033 15.7038C28.4928 15.2656 27.5912 15.0225 26.6703 14.9937C24.7058 14.7875 22.8013 16.1692 21.8002 16.1692C20.7797 16.1692 19.2384 15.0141 17.5787 15.0483C16.5051 15.083 15.4588 15.3952 14.5418 15.9544C13.6247 16.5137 12.8682 17.301 12.3459 18.2396C10.0834 22.1568 11.771 27.9139 13.9383 31.0803C15.0227 32.6308 16.29 34.3628 17.9482 34.3014C19.5709 34.2341 20.177 33.2666 22.1357 33.2666C24.0763 33.2666 24.6449 34.3014 26.3368 34.2623C28.078 34.2341 29.1751 32.7049 30.2214 31.1397C31.0005 30.0349 31.6 28.8139 31.9978 27.5219C30.9862 27.094 30.1229 26.3778 29.5156 25.4626C28.9083 24.5474 28.5838 23.4737 28.5826 22.3753Z" fill="#282739"/>
<path id="&#60;Path&#62;_2" d="M25.386 12.9116C26.3354 11.7719 26.8031 10.307 26.6898 8.82794C25.2394 8.98028 23.8996 9.67351 22.9373 10.7695C22.4669 11.3049 22.1066 11.9278 21.877 12.6025C21.6474 13.2773 21.5531 13.9907 21.5993 14.7019C22.3248 14.7094 23.0426 14.5521 23.6985 14.242C24.3544 13.9319 24.9314 13.477 25.386 12.9116Z" fill="#282739"/>
</g>
</g>
<g id="Group_4">
<path id="Vector_2" d="M48.0449 30.5323H42.7198L41.441 34.3083H39.1855L44.2294 20.338H46.5727L51.6166 34.3083H49.3226L48.0449 30.5323ZM43.2714 28.7898H47.4924L45.4115 22.6616H45.3533L43.2714 28.7898Z" fill="#282739"/>
<path id="Vector_3" d="M62.5085 29.2158C62.5085 32.381 60.8144 34.4146 58.2578 34.4146C57.6102 34.4485 56.9662 34.2993 56.3994 33.9841C55.8326 33.669 55.3661 33.2006 55.0531 32.6326H55.0048V37.6775H52.9141V24.1226H54.9377V25.8167H54.9762C55.3035 25.2514 55.778 24.7854 56.3491 24.4684C56.9201 24.1513 57.5665 23.995 58.2194 24.016C60.8045 24.016 62.5085 26.0595 62.5085 29.2158ZM60.3595 29.2158C60.3595 27.1537 59.2938 25.798 57.6679 25.798C56.0705 25.798 54.996 27.1823 54.996 29.2158C54.996 31.2681 56.0705 32.6425 57.6679 32.6425C59.2939 32.6425 60.3595 31.2967 60.3595 29.2158H60.3595Z" fill="#282739"/>
<path id="Vector_4" d="M73.7199 29.2158C73.7199 32.381 72.0253 34.4146 69.4688 34.4146C68.8212 34.4485 68.1771 34.2993 67.6103 33.9841C67.0436 33.669 66.577 33.2006 66.2641 32.6326H66.2157V37.6775H64.125V24.1226H66.1487V25.8167H66.1871C66.5145 25.2514 66.9889 24.7854 67.56 24.4684C68.1311 24.1513 68.7774 23.995 69.4303 24.016C72.0154 24.016 73.7199 26.0595 73.7199 29.2158ZM71.5705 29.2158C71.5705 27.1537 70.5048 25.798 68.8788 25.798C67.2814 25.798 66.2069 27.1823 66.2069 29.2158C66.2069 31.2681 67.2814 32.6425 68.8788 32.6425C70.5048 32.6425 71.5705 31.2967 71.5705 29.2158Z" fill="#282739"/>
<path id="Vector_5" d="M81.1285 30.4158C81.2834 31.8012 82.6292 32.7108 84.4683 32.7108C86.2305 32.7108 87.4983 31.8011 87.4983 30.552C87.4983 29.4676 86.7337 28.8184 84.9232 28.3734L83.1126 27.9372C80.5473 27.3176 79.3564 26.1179 79.3564 24.1711C79.3564 21.7607 81.457 20.1051 84.4387 20.1051C87.3918 20.1051 89.4155 21.7607 89.4836 24.1711H87.3731C87.2468 22.7769 86.0943 21.9354 84.4101 21.9354C82.7259 21.9354 81.5734 22.7868 81.5734 24.0261C81.5734 25.0138 82.3095 25.5949 84.1102 26.0399L85.6493 26.4178C88.5157 27.0956 89.7055 28.247 89.7055 30.2905C89.7055 32.9041 87.6247 34.5411 84.3134 34.5411C81.2152 34.5411 79.1234 32.9426 78.9883 30.4157L81.1285 30.4158Z" fill="#282739"/>
<path id="Vector_6" d="M94.2202 21.7124V24.1228H96.1571V25.7784H94.2202V31.3935C94.2202 32.2658 94.608 32.6723 95.4595 32.6723C95.6894 32.6683 95.919 32.6522 96.1472 32.624V34.2697C95.7644 34.3412 95.3753 34.3736 94.986 34.3664C92.9238 34.3664 92.1196 33.5919 92.1196 31.6165V25.7784H90.6387V24.1228H92.1196V21.7124H94.2202Z" fill="#282739"/>
<path id="Vector_7" d="M97.2773 29.216C97.2773 26.0113 99.1648 23.9975 102.108 23.9975C105.061 23.9975 106.94 26.0113 106.94 29.216C106.94 32.4295 105.071 34.4345 102.108 34.4345C99.1461 34.4345 97.2773 32.4295 97.2773 29.216ZM104.81 29.216C104.81 27.0177 103.802 25.7202 102.108 25.7202C100.414 25.7202 99.4065 27.0276 99.4065 29.216C99.4065 31.4232 100.414 32.7108 102.108 32.7108C103.802 32.7108 104.81 31.4232 104.81 29.216H104.81Z" fill="#282739"/>
<path id="Vector_8" d="M108.664 24.1225H110.658V25.8561H110.706C110.841 25.3147 111.159 24.8362 111.605 24.501C112.051 24.1659 112.599 23.9946 113.156 24.0159C113.397 24.0151 113.638 24.0412 113.873 24.0939V26.0495C113.569 25.9565 113.251 25.9139 112.933 25.9231C112.63 25.9108 112.327 25.9644 112.046 26.0801C111.765 26.1959 111.512 26.3711 111.305 26.5937C111.098 26.8163 110.942 27.0811 110.847 27.3698C110.752 27.6586 110.72 27.9645 110.755 28.2665V34.3079H108.664L108.664 24.1225Z" fill="#282739"/>
<path id="Vector_9" d="M123.512 31.3166C123.231 33.1656 121.43 34.4345 119.126 34.4345C116.163 34.4345 114.324 32.4493 114.324 29.2644C114.324 26.0696 116.173 23.9975 119.038 23.9975C121.856 23.9975 123.629 25.9333 123.629 29.0216V29.7379H116.435V29.8642C116.401 30.2391 116.448 30.6167 116.572 30.972C116.696 31.3273 116.894 31.6522 117.154 31.9251C117.413 32.198 117.727 32.4126 118.075 32.5547C118.424 32.6967 118.799 32.7631 119.175 32.7492C119.669 32.7955 120.165 32.6811 120.588 32.423C121.012 32.1649 121.341 31.7768 121.527 31.3166L123.512 31.3166ZM116.445 28.2767H121.537C121.555 27.9397 121.504 27.6024 121.387 27.286C121.269 26.9696 121.087 26.681 120.852 26.4383C120.618 26.1956 120.336 26.0039 120.023 25.8754C119.711 25.747 119.376 25.6844 119.038 25.6916C118.698 25.6896 118.36 25.755 118.045 25.8841C117.73 26.0132 117.444 26.2034 117.203 26.4437C116.962 26.684 116.771 26.9698 116.64 27.2844C116.51 27.599 116.444 27.9362 116.445 28.2767V28.2767Z" fill="#282739"/>
</g>
</g>
</g>
<g id="&#60;Group&#62;_4">
<g id="Group_5">
<path id="Vector_10" d="M41.7899 12.6601H42.6875C42.842 12.6794 42.9988 12.6664 43.1481 12.622C43.2973 12.5776 43.4358 12.5028 43.5547 12.4023C43.6736 12.3018 43.7704 12.1777 43.8389 12.0379C43.9075 11.8981 43.9464 11.7456 43.9531 11.5901C43.9531 10.971 43.4873 10.5711 42.6974 10.5711C42.5391 10.549 42.3779 10.5588 42.2235 10.6C42.0691 10.6412 41.9244 10.7129 41.7982 10.8109C41.6719 10.9089 41.5665 11.0312 41.4883 11.1706C41.4101 11.31 41.3606 11.4636 41.3428 11.6225H40.3573C40.3742 11.3341 40.4504 11.0524 40.5809 10.7947C40.7115 10.5371 40.8937 10.3091 41.1162 10.1249C41.3387 9.94077 41.5968 9.80437 41.8743 9.72425C42.1518 9.64413 42.4428 9.62199 42.7292 9.65921C44.0509 9.65921 44.9815 10.3991 44.9815 11.4643C44.9846 11.8211 44.8652 12.1682 44.6432 12.4476C44.4213 12.727 44.1102 12.9219 43.762 12.9996V13.0787C44.1748 13.097 44.5637 13.278 44.8434 13.5822C45.1232 13.8864 45.2712 14.289 45.255 14.7019C45.2245 14.9988 45.1349 15.2866 44.9917 15.5484C44.8485 15.8103 44.6545 16.0409 44.421 16.2268C44.1875 16.4126 43.9192 16.55 43.6319 16.6309C43.3446 16.7117 43.0441 16.7344 42.7479 16.6976C42.4511 16.7381 42.1492 16.7184 41.8602 16.6397C41.5712 16.561 41.301 16.4249 41.0657 16.2395C40.8304 16.0541 40.6349 15.8233 40.4907 15.5607C40.3465 15.2982 40.2567 15.0093 40.2266 14.7113H41.2274C41.2878 15.3534 41.8778 15.7677 42.7479 15.7677C43.618 15.7677 44.186 15.3024 44.186 14.6465C44.186 13.9813 43.651 13.5715 42.7161 13.5715H41.7899V12.6601Z" fill="#282739"/>
<path id="Vector_11" d="M46.3926 15.1019C46.3926 14.1901 47.0726 13.6644 48.2767 13.5897L49.6489 13.5106V13.0733C49.6489 12.5383 49.2963 12.2361 48.6118 12.2361C48.0537 12.2361 47.6681 12.441 47.556 12.7992H46.5881C46.6903 11.9291 47.5099 11.371 48.6591 11.371C49.9291 11.371 50.6454 12.0032 50.6454 13.0733V16.5345H49.6819V15.8226H49.6028C49.4422 16.078 49.2168 16.2862 48.9495 16.4259C48.6821 16.5657 48.3825 16.6319 48.0812 16.618C47.8685 16.6401 47.6536 16.6174 47.4502 16.5514C47.2469 16.4854 47.0596 16.3774 46.9005 16.2346C46.7414 16.0918 46.614 15.9172 46.5265 15.7221C46.439 15.527 46.3934 15.3157 46.3926 15.1019ZM49.6489 14.6691V14.2455L48.4118 14.3246C47.7142 14.3713 47.3978 14.6086 47.3978 15.0552C47.3978 15.5112 47.7933 15.7765 48.3372 15.7765C48.4965 15.7926 48.6575 15.7765 48.8105 15.7292C48.9635 15.6818 49.1054 15.6042 49.2278 15.5009C49.3502 15.3975 49.4506 15.2707 49.5229 15.1278C49.5952 14.9849 49.6381 14.8289 49.6489 14.6691Z" fill="#282739"/>
<path id="Vector_12" d="M53.2986 12.3104V16.5346H52.2988V11.4688H55.6343V12.3103L53.2986 12.3104Z" fill="#282739"/>
<path id="Vector_13" d="M61.6936 14.0003C61.6936 15.6098 60.8795 16.6189 59.6007 16.6189C59.2868 16.6404 58.9733 16.5717 58.6971 16.4209C58.4209 16.2702 58.1935 16.0436 58.0418 15.768H57.9626V18.2196H56.9629V11.4696H57.9253V12.3068H58C58.1545 12.0216 58.3848 11.7846 58.6656 11.622C58.9463 11.4594 59.2665 11.3776 59.5908 11.3856C60.8795 11.3856 61.6936 12.3903 61.6936 14.0003ZM60.6653 14.0003C60.6653 12.9303 60.1588 12.2837 59.3118 12.2837C58.4703 12.2837 57.944 12.944 57.944 14.0047C57.944 15.0605 58.4702 15.7213 59.3074 15.7213C60.1588 15.7213 60.6653 15.0748 60.6653 14.0003Z" fill="#282739"/>
<path id="Vector_14" d="M63.0242 18.349V17.4882C63.1324 17.502 63.2414 17.5082 63.3505 17.5069C63.5635 17.5227 63.7748 17.4592 63.9439 17.3288C64.113 17.1983 64.228 17.01 64.2667 16.7999L64.3414 16.5533L62.5078 11.4688H63.5966L64.8666 15.4926H64.9457L66.2113 11.4688H67.2715L65.383 16.7439C64.9501 17.9766 64.4711 18.3721 63.4384 18.3721C63.3549 18.3721 63.1176 18.3627 63.0242 18.349Z" fill="#282739"/>
<path id="Vector_15" d="M68.0508 15.0971H69.0461C69.1439 15.5437 69.5625 15.7766 70.1481 15.7766C70.8139 15.7766 71.2225 15.4833 71.2225 15.0273C71.2225 14.539 70.8556 14.3061 70.1481 14.3061H69.39V13.5294H70.1349C70.7391 13.5294 71.0468 13.297 71.0468 12.8735C71.0468 12.5016 70.749 12.2176 70.1349 12.2176C69.5757 12.2176 69.167 12.4549 69.1021 12.8548H68.1387C68.2107 12.3953 68.4602 11.9824 68.8335 11.705C69.2068 11.4275 69.6741 11.3076 70.1349 11.3711C71.339 11.3711 72.0278 11.9155 72.0278 12.7713C72.0335 13.0097 71.9571 13.2427 71.8115 13.4315C71.6659 13.6202 71.46 13.7533 71.228 13.8084V13.8875C71.5042 13.9232 71.7576 14.0589 71.9403 14.269C72.1229 14.4791 72.2221 14.749 72.219 15.0274C72.219 15.9904 71.3994 16.6275 70.1481 16.6275C69.0418 16.6275 68.1431 16.1205 68.0508 15.0971Z" fill="#282739"/>
<path id="Vector_16" d="M73.6582 16.5346V11.4688H74.6492V14.9531H74.7283L77.0629 11.4688H78.0538V16.5346H77.0629V13.0316H76.9882L74.6492 16.5346L73.6582 16.5346Z" fill="#282739"/>
<path id="Vector_17" d="M83.5117 12.3112H81.9164V16.5354H80.9156V12.3112H79.3203V11.4697H83.5117V12.3112Z" fill="#282739"/>
<path id="Vector_18" d="M88.8977 15.1668C88.7615 15.6298 88.4669 16.0302 88.0655 16.2981C87.6641 16.5659 87.1813 16.6843 86.7015 16.6324C86.3678 16.6412 86.0361 16.5773 85.7296 16.4451C85.423 16.3129 85.1489 16.1155 84.9262 15.8667C84.7036 15.6179 84.5377 15.3237 84.4402 15.0044C84.3427 14.6851 84.3158 14.3484 84.3614 14.0177C84.317 13.6859 84.3444 13.3485 84.4417 13.0282C84.539 12.708 84.7039 12.4124 84.9254 12.1614C85.1469 11.9105 85.4197 11.71 85.7254 11.5737C86.031 11.4373 86.3624 11.3682 86.6971 11.3711C88.1067 11.3711 88.9581 12.3341 88.9581 13.9248V14.2737H85.381V14.3297C85.3651 14.5156 85.3884 14.7028 85.4492 14.8793C85.51 15.0557 85.6071 15.2174 85.7341 15.3541C85.8612 15.4908 86.0154 15.5994 86.187 15.6729C86.3585 15.7464 86.5435 15.7832 86.7301 15.7809C86.9691 15.8095 87.2112 15.7664 87.4256 15.657C87.64 15.5477 87.817 15.377 87.9342 15.1668L88.8977 15.1668ZM85.381 13.5343H87.9386C87.9512 13.3643 87.9282 13.1936 87.8709 13.0331C87.8137 12.8727 87.7235 12.7259 87.6062 12.6023C87.4888 12.4787 87.347 12.3811 87.1897 12.3156C87.0324 12.2501 86.8631 12.2182 86.6927 12.222C86.5198 12.2196 86.3481 12.2519 86.1878 12.3171C86.0276 12.3822 85.882 12.4788 85.7597 12.6011C85.6375 12.7235 85.5409 12.8691 85.4759 13.0293C85.4108 13.1896 85.3786 13.3613 85.381 13.5343H85.381Z" fill="#282739"/>
<path id="Vector_19" d="M93.1367 11.4688H95.4208C96.4117 11.4688 96.9929 11.9709 96.9929 12.7569C96.9944 13.0064 96.9103 13.2487 96.7545 13.4435C96.5987 13.6383 96.3807 13.7737 96.1371 13.827V13.9061C96.4329 13.9248 96.7103 14.0564 96.9119 14.2737C97.1135 14.4911 97.2239 14.7775 97.2203 15.074C97.2203 15.9578 96.5556 16.5346 95.4438 16.5346H93.1367V11.4688ZM94.1277 12.2362V13.548H95.1187C95.7229 13.548 96.0118 13.3156 96.0118 12.8871C96.0118 12.4922 95.7603 12.2362 95.2296 12.2362L94.1277 12.2362ZM94.1277 14.283V15.7672H95.3132C95.9042 15.7672 96.2206 15.5063 96.2206 15.0273C96.2206 14.5203 95.8625 14.283 95.1879 14.283L94.1277 14.283Z" fill="#282739"/>
</g>
</g>
</g>
</svg>
