<svg width="22" height="14" viewBox="0 0 22 14" fill="none" xmlns="http://www.w3.org/2000/svg">
<g id="Maestro">
<path id="Left" d="M13.3463 7.12368C13.3463 10.8356 10.3718 13.8447 6.70247 13.8447C3.03316 13.8447 0.0585938 10.8356 0.0585938 7.12368C0.0585938 3.41177 3.03316 0.402679 6.70247 0.402679C10.3718 0.402679 13.3463 3.41177 13.3463 7.12368Z" fill="#ED0006"/>
<path id="Right" d="M21.9655 7.12386C21.9655 10.8358 18.9909 13.8449 15.3216 13.8449C11.6523 13.8449 8.67773 10.8358 8.67773 7.12386C8.67773 3.41196 11.6523 0.402863 15.3216 0.402863C18.9909 0.402863 21.9655 3.41196 21.9655 7.12386Z" fill="#0099DF"/>
<path id="Middle" fill-rule="evenodd" clip-rule="evenodd" d="M11.0125 12.2395C12.4413 11.0068 13.3473 9.17228 13.3473 7.12372C13.3473 5.07516 12.4413 3.24066 11.0125 2.0079C9.58373 3.24066 8.67773 5.07516 8.67773 7.12372C8.67773 9.17228 9.58373 11.0068 11.0125 12.2395Z" fill="#6C6BBD"/>
</g>
</svg>
