<svg width="23" height="14" viewBox="0 0 23 14" fill="none" xmlns="http://www.w3.org/2000/svg">
<g id="Mastercard">
<path id="Left" fill-rule="evenodd" clip-rule="evenodd" d="M11.0662 12.2396C9.90609 13.2405 8.40137 13.8447 6.75715 13.8447C3.08784 13.8447 0.113281 10.8356 0.113281 7.12368C0.113281 3.41177 3.08784 0.402679 6.75715 0.402679C8.40142 0.402679 9.90618 1.00692 11.0663 2.00788C12.2264 1.00698 13.7311 0.402774 15.3753 0.402774C19.0446 0.402774 22.0192 3.41187 22.0192 7.12377C22.0192 10.8357 19.0446 13.8448 15.3753 13.8448C13.731 13.8448 12.2263 13.2405 11.0662 12.2396Z" fill="#ED0006"/>
<path id="Right" fill-rule="evenodd" clip-rule="evenodd" d="M11.0664 12.2396C12.4952 11.0068 13.4012 9.17233 13.4012 7.12377C13.4012 5.07521 12.4952 3.24071 11.0664 2.00795C12.2265 1.00701 13.7313 0.402771 15.3755 0.402771C19.0448 0.402771 22.0194 3.41186 22.0194 7.12377C22.0194 10.8357 19.0448 13.8448 15.3755 13.8448C13.7313 13.8448 12.2265 13.2405 11.0664 12.2396Z" fill="#F9A000"/>
<path id="Middle" fill-rule="evenodd" clip-rule="evenodd" d="M11.0672 12.2395C12.496 11.0068 13.402 9.17228 13.402 7.12372C13.402 5.07516 12.496 3.24066 11.0672 2.0079C9.63842 3.24066 8.73242 5.07516 8.73242 7.12372C8.73242 9.17228 9.63842 11.0068 11.0672 12.2395Z" fill="#FF5E00"/>
</g>
</svg>
