<svg width="16" height="17" viewBox="0 0 16 17" fill="none" xmlns="http://www.w3.org/2000/svg">
<path id="Qiwi" fill-rule="evenodd" clip-rule="evenodd" d="M0.404297 7.57884C0.404297 11.3488 3.4788 14.4233 7.28532 14.4233C7.75253 14.4233 8.21974 14.3824 8.75657 14.3354C9.35523 14.2829 10.0405 14.2229 10.9088 14.2037C12.2265 14.2037 13.6539 14.6795 15.2278 16.0703C15.3742 16.2167 15.5938 16.0337 15.4474 15.8507C13.8735 13.9108 12.4461 13.5448 11.0186 13.2154C9.26178 12.8128 8.34675 11.8612 7.72453 10.7631C7.61473 10.5435 7.54153 10.5801 7.54153 10.8729C7.50493 11.3122 7.54153 11.7148 7.61473 12.1174H7.39512C4.90624 12.1174 2.85658 10.0677 2.85658 7.57884C2.85658 5.08996 4.90624 3.04029 7.39512 3.04029C9.884 3.04029 11.9337 5.08996 11.9337 7.57884C11.9337 7.72524 11.9337 7.90825 11.8971 8.09125C11.5311 8.01805 10.9088 8.01805 10.433 8.05465C10.25 8.05465 10.25 8.12785 10.3964 8.16446C11.8605 8.45726 12.8853 9.37229 13.1415 11.0559C13.1415 11.1292 13.1781 11.1292 13.2147 11.0926C13.8003 10.0677 14.1663 8.85988 14.1663 7.57884C14.1663 3.77231 11.0918 0.697815 7.28532 0.697815C3.4788 0.697815 0.404297 3.80891 0.404297 7.57884ZM12.2635 10.3972C12.5197 10.507 12.6295 10.873 12.6295 11.056C12.6661 11.3488 12.5929 11.4952 12.4831 11.4952C12.3733 11.4952 12.2269 11.3854 12.0805 11.1292C11.9341 10.873 11.8609 10.6168 11.9341 10.4704C12.0439 10.3972 12.1537 10.3606 12.2635 10.3972ZM10.7614 11.5318C10.9078 11.5318 11.0909 11.605 11.2739 11.7514C11.5667 12.0076 11.6765 12.3004 11.5301 12.52C11.4569 12.6298 11.2739 12.703 11.1275 12.703C10.9444 12.703 10.7614 12.6298 10.6516 12.52C10.3588 12.2638 10.2856 11.8978 10.4686 11.6782C10.5052 11.605 10.615 11.5318 10.7614 11.5318Z" fill="#F28A1A"/>
</svg>
