<svg width="16" height="16" viewBox="0 0 16 16" fill="none" xmlns="http://www.w3.org/2000/svg">
<g id="viber 1" clip-path="url(#clip0_488_17568)">
<path id="Vector" d="M8.54451 9.03964C8.36153 9.22275 8.06477 9.22275 7.88167 9.03964L5.75154 6.90951C5.66365 6.82162 5.61421 6.70236 5.61421 6.57809C5.61421 6.4537 5.66365 6.33456 5.75154 6.24655L6.1302 5.86801L5.01802 4.75583L4.10689 5.66696C3.80025 5.9736 3.80037 6.4725 4.10689 6.77914L8.01204 10.6845C8.15962 10.8321 8.35713 10.9133 8.56819 10.9133C8.77925 10.9133 8.97676 10.832 9.12434 10.6844L10.0355 9.77341L8.92329 8.6611L8.54451 9.03964Z" fill="#5D6C7B"/>
<path id="Vector_2" d="M15.3276 5.64719C15.3276 4.14438 14.7388 2.72787 13.6692 1.65842C12.5997 0.588959 11.1832 -3.05176e-05 9.68054 -3.05176e-05H6.33447C6.33447 -3.05176e-05 6.33447 -3.05176e-05 6.33435 -3.05176e-05C4.83179 -3.05176e-05 3.41528 0.588959 2.34595 1.65829C1.27649 2.72775 0.6875 4.14438 0.6875 5.64706V8.27719C0.6875 9.44089 1.04248 10.5604 1.71411 11.5146C2.30664 12.3564 3.10352 13.0139 4.03259 13.4309V14.9416C4.03259 15.7227 4.46997 15.9998 4.84448 16C5.11206 16 5.37976 15.8679 5.64026 15.6075L7.32324 13.9243H9.68066C11.1833 13.9243 12.5999 13.3353 13.6693 12.2658C14.7388 11.1964 15.3278 9.77988 15.3278 8.27719L15.3276 5.64719ZM11.0293 10.1048L9.78662 11.3474C9.46191 11.6721 9.02905 11.8507 8.56763 11.8507C8.1062 11.8507 7.67334 11.672 7.34863 11.3474L3.44336 7.44199C2.77136 6.76974 2.77136 5.67612 3.44336 5.004L4.68604 3.76144C4.77393 3.67343 4.89307 3.62411 5.01746 3.62411C5.14172 3.62411 5.26099 3.67343 5.34888 3.76144L7.12402 5.53659C7.21191 5.62448 7.26123 5.74374 7.26123 5.86801C7.26123 5.99228 7.21191 6.11154 7.1239 6.19943L6.74536 6.57797L8.21265 8.04526L8.59131 7.6666C8.77441 7.48361 9.07117 7.48361 9.25415 7.66672L11.0293 9.44186C11.1173 9.52975 11.1666 9.64902 11.1666 9.77328C11.1666 9.89767 11.1173 10.0169 11.0293 10.1048ZM7.65259 4.55063C7.65259 4.29184 7.86243 4.08188 8.12134 4.08188C9.74548 4.08188 11.0669 5.40317 11.0669 7.02719C11.0669 7.2861 10.8571 7.49594 10.5981 7.49594C10.3394 7.49594 10.1294 7.2861 10.1294 7.02719C10.1294 5.92014 9.22864 5.01938 8.12134 5.01938C7.86243 5.01938 7.65259 4.80954 7.65259 4.55063ZM12.6063 7.49619C12.3474 7.49619 12.1376 7.28622 12.1376 7.02744C12.1377 5.95456 11.7198 4.94601 10.9613 4.18735C10.2026 3.4288 9.19409 3.01096 8.12122 3.01096C7.86243 3.01096 7.65247 2.80112 7.65247 2.54221C7.65247 2.28342 7.86243 2.07346 8.12122 2.07346C9.44446 2.07346 10.6885 2.58884 11.6241 3.52451C12.5599 4.46017 13.0752 5.70419 13.0751 7.02744C13.0751 7.28622 12.8652 7.49619 12.6063 7.49619Z" fill="#5D6C7B"/>
</g>
<defs>
<clipPath id="clip0_488_17568">
<rect width="16" height="16" fill="white"/>
</clipPath>
</defs>
</svg>
