<svg width="25" height="9" viewBox="0 0 25 9" fill="none" xmlns="http://www.w3.org/2000/svg">
<path id="visa-logo" fill-rule="evenodd" clip-rule="evenodd" d="M6.23526 8.14609H4.17084L2.62277 2.24013C2.54929 1.96846 2.39328 1.72828 2.16379 1.61509C1.59106 1.33062 0.959961 1.10422 0.271484 0.990041V0.762661H3.59711C4.05609 0.762661 4.40033 1.10422 4.4577 1.50091L5.26092 5.76107L7.32434 0.762661H9.33139L6.23526 8.14609ZM10.4781 8.14609H8.52838L10.1338 0.762661H12.0835L10.4781 8.14609ZM14.6069 2.80806C14.6642 2.4104 15.0085 2.18302 15.4101 2.18302C16.0412 2.12593 16.7287 2.24011 17.3024 2.52359L17.6466 0.933907C17.0729 0.706528 16.4418 0.592346 15.8691 0.592346C13.9768 0.592346 12.5998 1.61506 12.5998 3.03446C12.5998 4.11426 13.5752 4.68124 14.2636 5.0228C15.0085 5.36337 15.2954 5.59075 15.238 5.93133C15.238 6.4422 14.6642 6.66957 14.0915 6.66957C13.403 6.66957 12.7146 6.49929 12.0845 6.21482L11.7402 7.80549C12.4287 8.08897 13.1736 8.20315 13.862 8.20315C15.9838 8.25926 17.3024 7.23753 17.3024 5.70395C17.3024 3.7727 14.6069 3.65951 14.6069 2.80806ZM24.1262 8.14609L22.5781 0.762661H20.9153C20.5711 0.762661 20.2269 0.990041 20.1121 1.33062L17.2455 8.14609H19.2525L19.6531 7.06727H22.1192L22.3486 8.14609H24.1262ZM21.201 2.75094L21.7737 5.53363H20.1683L21.201 2.75094Z" fill="#172B85"/>
</svg>
