<svg width="24" height="16" viewBox="0 0 24 16" fill="none" xmlns="http://www.w3.org/2000/svg">
<g id="Webmoney">
<path id="Webmoney-watermark" fill-rule="evenodd" clip-rule="evenodd" d="M7.54533 12.0488C7.69786 11.9695 7.95713 11.8655 8.23179 11.8655C8.86223 11.8655 9.20298 12.2912 9.20298 13.0834C9.20298 14.0088 8.74549 14.4592 8.00813 14.4592C7.73851 14.4592 7.32157 14.3751 7.01643 14.2165V10.7618L7.54533 10.6381V12.0488ZM7.53938 14.0335C7.70198 14.1028 7.88005 14.1126 8.00721 14.1126C8.38349 14.1126 8.66822 13.885 8.66822 13.0834C8.66822 12.4546 8.43431 12.2517 8.09364 12.2517C7.89012 12.2517 7.74281 12.3062 7.53938 12.4151V14.0335ZM2.12427 11.9299H2.15988L2.85129 14.3999H3.40043L4.22431 10.8905H3.62931L3.11066 13.509H3.07523L2.36826 10.8905H1.91571L1.2547 13.509H1.21909L0.649538 10.8905H0.0800781L0.90387 14.3999H1.45291L2.12427 11.9299ZM6.47569 14.2316V13.8555C6.196 14.0188 5.94185 14.1128 5.66728 14.1128C5.14351 14.1128 4.89439 13.8504 4.89439 13.2565H6.55195V13.0735C6.55195 12.2668 6.16038 11.8658 5.52491 11.8658C4.76219 11.8658 4.37062 12.4103 4.37062 13.1625C4.37062 13.9447 4.72145 14.4595 5.57564 14.4595C5.94185 14.4595 6.2469 14.3605 6.47569 14.2316ZM6.06917 12.925H4.90497C4.96073 12.4302 5.1996 12.1975 5.50996 12.1975C5.78453 12.1975 6.04398 12.4052 6.06917 12.925ZM11.543 13.6574H11.5174L10.3784 10.8905H9.7632V14.3999H10.2209V11.9152H10.2666L11.304 14.3999H11.6293L12.6667 11.8558H12.7126V14.3999H13.2617V10.8905H12.6311L11.543 13.6574ZM13.8199 13.1625C13.8199 12.2963 14.3081 11.8658 14.9793 11.8658C15.6505 11.8658 16.1388 12.2963 16.1388 13.1625C16.1388 14.009 15.676 14.4595 14.9793 14.4595C14.2826 14.4595 13.8199 14.009 13.8199 13.1625ZM15.6053 13.1625C15.6053 12.4944 15.3255 12.2123 14.9798 12.2123C14.6442 12.2123 14.3543 12.4944 14.3543 13.1625C14.3543 13.8408 14.6189 14.1128 14.9798 14.1128C15.3408 14.1128 15.6053 13.8408 15.6053 13.1625ZM17.9189 11.8657C17.3344 11.8657 16.8512 12.0983 16.6224 12.2319V14.3999H17.1513V12.4398C17.3089 12.3509 17.5682 12.2616 17.7717 12.2616C18.031 12.2616 18.2291 12.3309 18.2291 12.722V14.3999H18.758V12.608C18.758 12.0983 18.5293 11.8657 17.9189 11.8657ZM21.3351 13.8555V14.2316C21.1064 14.3605 20.8014 14.4595 20.4351 14.4595C19.581 14.4595 19.2301 13.9447 19.2301 13.1625C19.2301 12.4103 19.6217 11.8658 20.3844 11.8658C21.0201 11.8658 21.4118 12.2668 21.4118 13.0735V13.2565H19.754C19.754 13.8504 20.0031 14.1128 20.5268 14.1128C20.8014 14.1128 21.0556 14.0188 21.3351 13.8555ZM19.7644 12.925H20.9288C20.9035 12.4052 20.644 12.1975 20.3694 12.1975C20.0591 12.1975 19.8205 12.4302 19.7644 12.925ZM23.935 11.9498H23.3909L22.811 13.7712H22.7807L22.1298 11.9498H21.5704L22.5468 14.4246C22.4245 14.7908 22.2112 15.0583 21.8654 15.0583V15.464C22.4499 15.464 22.7602 15.1078 23.0145 14.4246L23.935 11.9498Z" fill="#0068A3"/>
<path id="Webmoney-logo" fill-rule="evenodd" clip-rule="evenodd" d="M11.6656 0.515991C12.3654 0.515991 13.0281 0.674612 13.6184 0.956226C13.7111 0.999033 13.8035 1.04613 13.8963 1.09813L13.486 1.45555L12.8696 0.83516L11.8292 1.73839L11.2113 1.08193L9.27332 2.7823L10.5158 4.11508L10.0275 4.53308L11.2512 5.86788L10.7659 6.28492L12.5145 8.17953L13.5525 7.24934L14.45 8.24615C14.2715 8.38122 14.077 8.50833 13.8628 8.62581C13.2138 8.98603 12.4638 9.19228 11.6656 9.19228C9.211 9.19228 7.20898 7.2433 7.20898 4.85426C7.20898 2.4647 9.211 0.515991 11.6656 0.515991ZM10.8524 4.57997L11.9121 3.651L12.8664 4.68283L11.8067 5.61145L10.8524 4.57997ZM12.6672 5.43367L11.6073 6.36237L12.5618 7.3942L13.6216 6.46523L12.6672 5.43367ZM10.0955 2.81832L11.1553 1.88962L12.1093 2.92118L11.0495 3.84988L10.0955 2.81832ZM12.8338 1.62184L12.039 2.3183L12.7546 3.09224L13.5494 2.39551L12.8338 1.62184ZM13.4519 5.50903L14.247 4.81231L14.9626 5.58616L14.1678 6.28271L13.4519 5.50903ZM14.9464 6.37498L14.1517 7.07179L14.8673 7.8452L15.6621 7.14865L14.9464 6.37498ZM14.4712 3.49012L15.0011 3.02572L15.4781 3.54151L14.9485 4.00581L14.4712 3.49012ZM14.3241 1.49324L13.7942 1.95755L14.2712 2.47333L14.8012 2.00903L14.3241 1.49324ZM15.1482 5.0226L15.678 4.5582L16.1551 5.0739L15.6253 5.53829L15.1482 5.0226ZM13.5678 3.1775L12.773 3.87431L13.4888 4.64772L14.2834 3.95117L13.5678 3.1775Z" fill="#0068A3"/>
</g>
</svg>
