<svg width="20" height="20" viewBox="0 0 20 20" fill="none" xmlns="http://www.w3.org/2000/svg">
<mask id="path-1-inside-1_357_8336" fill="white">
<path d="M19.4141 11.2641H18.7766L16.7349 6.32565C17.0208 6.28675 17.2413 6.04229 17.2413 5.74573C17.2413 5.42214 16.979 5.1598 16.6554 5.1598H11.6177C11.3769 4.49101 10.7363 4.01147 9.98559 4.01147C9.23488 4.01147 8.59422 4.49104 8.3534 5.1598H3.34465C3.02105 5.1598 2.75871 5.42214 2.75871 5.74573C2.75871 6.04229 2.97926 6.28675 3.26512 6.32565L1.22344 11.2641H0.585938C0.262344 11.2641 0 11.5264 0 11.85C0 14.1321 1.85668 15.9888 4.13883 15.9888C6.42098 15.9888 8.27766 14.1321 8.27766 11.85C8.27766 11.5264 8.01531 11.2641 7.69172 11.2641H7.05418L5.01504 6.33167H8.3534C8.59422 7.00046 9.23484 7.47999 9.98559 7.47999C10.7363 7.47999 11.3769 7.00046 11.6177 6.33167H14.985L12.9459 11.2641H12.3083C11.9847 11.2641 11.7224 11.5264 11.7224 11.85C11.7224 14.1321 13.5791 15.9888 15.8612 15.9888C18.1434 15.9888 20 14.1321 20 11.85C20 11.5264 19.7377 11.2641 19.4141 11.2641ZM4.13883 14.8169C2.70332 14.8169 1.5027 13.7923 1.22996 12.4359H7.0477C6.77496 13.7923 5.57434 14.8169 4.13883 14.8169ZM5.78613 11.2641H2.49152L4.13883 7.27952L5.78613 11.2641ZM9.98555 6.30812C9.67543 6.30812 9.42316 6.05585 9.42316 5.74573C9.42316 5.43562 9.67543 5.18335 9.98555 5.18335C10.2956 5.18335 10.5479 5.43562 10.5479 5.74573C10.5479 6.05585 10.2957 6.30812 9.98555 6.30812ZM15.8612 7.27952L17.5085 11.2641H14.2139L15.8612 7.27952ZM15.8612 14.8169C14.4257 14.8169 13.225 13.7923 12.9523 12.4359H18.77C18.4973 13.7923 17.2966 14.8169 15.8612 14.8169Z"/>
</mask>
<path d="M19.4141 11.2641H18.7766L16.7349 6.32565C17.0208 6.28675 17.2413 6.04229 17.2413 5.74573C17.2413 5.42214 16.979 5.1598 16.6554 5.1598H11.6177C11.3769 4.49101 10.7363 4.01147 9.98559 4.01147C9.23488 4.01147 8.59422 4.49104 8.3534 5.1598H3.34465C3.02105 5.1598 2.75871 5.42214 2.75871 5.74573C2.75871 6.04229 2.97926 6.28675 3.26512 6.32565L1.22344 11.2641H0.585938C0.262344 11.2641 0 11.5264 0 11.85C0 14.1321 1.85668 15.9888 4.13883 15.9888C6.42098 15.9888 8.27766 14.1321 8.27766 11.85C8.27766 11.5264 8.01531 11.2641 7.69172 11.2641H7.05418L5.01504 6.33167H8.3534C8.59422 7.00046 9.23484 7.47999 9.98559 7.47999C10.7363 7.47999 11.3769 7.00046 11.6177 6.33167H14.985L12.9459 11.2641H12.3083C11.9847 11.2641 11.7224 11.5264 11.7224 11.85C11.7224 14.1321 13.5791 15.9888 15.8612 15.9888C18.1434 15.9888 20 14.1321 20 11.85C20 11.5264 19.7377 11.2641 19.4141 11.2641ZM4.13883 14.8169C2.70332 14.8169 1.5027 13.7923 1.22996 12.4359H7.0477C6.77496 13.7923 5.57434 14.8169 4.13883 14.8169ZM5.78613 11.2641H2.49152L4.13883 7.27952L5.78613 11.2641ZM9.98555 6.30812C9.67543 6.30812 9.42316 6.05585 9.42316 5.74573C9.42316 5.43562 9.67543 5.18335 9.98555 5.18335C10.2956 5.18335 10.5479 5.43562 10.5479 5.74573C10.5479 6.05585 10.2957 6.30812 9.98555 6.30812ZM15.8612 7.27952L17.5085 11.2641H14.2139L15.8612 7.27952ZM15.8612 14.8169C14.4257 14.8169 13.225 13.7923 12.9523 12.4359H18.77C18.4973 13.7923 17.2966 14.8169 15.8612 14.8169Z" fill="#282739"/>
<path d="M18.7766 11.2641L15.08 12.7923L16.1019 15.2641H18.7766V11.2641ZM16.7349 6.32565L16.1956 2.36219L11.0571 3.06145L13.0384 7.85389L16.7349 6.32565ZM11.6177 5.1598L7.85429 6.51495L8.80665 9.15979H11.6177V5.1598ZM8.3534 5.1598V9.15979H11.1644L12.1168 6.51502L8.3534 5.1598ZM3.26512 6.32565L6.96166 7.85391L8.94296 3.06155L3.80455 2.3622L3.26512 6.32565ZM1.22344 11.2641V15.2641H3.89809L4.91998 12.7923L1.22344 11.2641ZM7.05418 11.2641L3.35762 12.7923L4.3795 15.2641H7.05418V11.2641ZM5.01504 6.33167V2.33167H-0.966991L1.31848 7.8599L5.01504 6.33167ZM8.3534 6.33167L12.1168 4.97651L11.1645 2.33167H8.3534V6.33167ZM11.6177 6.33167V2.33167H8.80665L7.85429 4.97651L11.6177 6.33167ZM14.985 6.33167L18.6816 7.8599L20.967 2.33167H14.985V6.33167ZM12.9459 11.2641V15.2641H15.6205L16.6424 12.7923L12.9459 11.2641ZM1.22996 12.4359V8.43593H-3.65441L-2.69155 13.2245L1.22996 12.4359ZM7.0477 12.4359L10.9692 13.2245L11.9321 8.43593H7.0477V12.4359ZM5.78613 11.2641V15.2641H11.7682L9.48268 9.73581L5.78613 11.2641ZM2.49152 11.2641L-1.20502 9.73581L-3.49054 15.2641H2.49152V11.2641ZM4.13883 7.27952L7.83538 5.75128L4.13883 -3.19L0.44228 5.75128L4.13883 7.27952ZM15.8612 7.27952L19.5577 5.75128L15.8612 -3.19L12.1646 5.75128L15.8612 7.27952ZM17.5085 11.2641V15.2641H23.4905L21.205 9.73581L17.5085 11.2641ZM14.2139 11.2641L10.5173 9.73581L8.2318 15.2641H14.2139V11.2641ZM12.9523 12.4359V8.43593H8.06793L9.0308 13.2245L12.9523 12.4359ZM18.77 12.4359L22.6915 13.2245L23.6544 8.43593H18.77V12.4359ZM19.4141 7.26405H18.7766V15.2641H19.4141V7.26405ZM22.4731 9.73582L20.4315 4.79742L13.0384 7.85389L15.08 12.7923L22.4731 9.73582ZM17.2743 10.2891C19.5083 9.98511 21.2413 8.07746 21.2413 5.74573H13.2413C13.2413 4.00713 14.5334 2.58838 16.1956 2.36219L17.2743 10.2891ZM21.2413 5.74573C21.2413 3.213 19.1881 1.1598 16.6554 1.1598V9.15979C14.7698 9.15979 13.2413 7.63128 13.2413 5.74573H21.2413ZM16.6554 1.1598H11.6177V9.15979H16.6554V1.1598ZM15.3812 3.80464C14.5889 1.60426 12.4809 0.0114746 9.98559 0.0114746V8.01147C8.99163 8.01147 8.16497 7.37775 7.85429 6.51495L15.3812 3.80464ZM9.98559 0.0114746C7.49022 0.0114746 5.38231 1.60429 4.58997 3.80457L12.1168 6.51502C11.8061 7.3778 10.9795 8.01147 9.98559 8.01147V0.0114746ZM8.3534 1.1598H3.34465V9.15979H8.3534V1.1598ZM3.34465 1.1598C0.811916 1.1598 -1.24129 3.213 -1.24129 5.74573H6.75871C6.75871 7.63128 5.23019 9.15979 3.34465 9.15979V1.1598ZM-1.24129 5.74573C-1.24129 8.0777 0.492035 9.98511 2.72568 10.2891L3.80455 2.3622C5.46648 2.58839 6.75871 4.00689 6.75871 5.74573H-1.24129ZM-0.431425 4.79739L-2.4731 9.73579L4.91998 12.7923L6.96166 7.85391L-0.431425 4.79739ZM1.22344 7.26405H0.585938V15.2641H1.22344V7.26405ZM0.585938 7.26405C-1.9468 7.26405 -4 9.31726 -4 11.85H4C4 13.7355 2.47148 15.2641 0.585938 15.2641V7.26405ZM-4 11.85C-4 16.3413 -0.352459 19.9888 4.13883 19.9888V11.9888C4.11514 11.9888 4.10112 11.9848 4.08983 11.98C4.07582 11.9741 4.05865 11.9634 4.04204 11.9468C4.02542 11.9302 4.01476 11.913 4.00882 11.899C4.00404 11.8877 4 11.8737 4 11.85H-4ZM4.13883 19.9888C8.63012 19.9888 12.2777 16.3413 12.2777 11.85H4.27766C4.27766 11.8737 4.27362 11.8877 4.26883 11.899C4.2629 11.913 4.25223 11.9302 4.23562 11.9468C4.21901 11.9634 4.20183 11.9741 4.18783 11.98C4.17654 11.9848 4.16251 11.9888 4.13883 11.9888V19.9888ZM12.2777 11.85C12.2777 9.31726 10.2245 7.26405 7.69172 7.26405V15.2641C5.80617 15.2641 4.27766 13.7355 4.27766 11.85H12.2777ZM7.69172 7.26405H7.05418V15.2641H7.69172V7.26405ZM10.7507 9.73583L8.71159 4.80344L1.31848 7.8599L3.35762 12.7923L10.7507 9.73583ZM5.01504 10.3317H8.3534V2.33167H5.01504V10.3317ZM4.58995 7.68683C5.38229 9.88726 7.49024 11.48 9.98559 11.48V3.47999C10.9795 3.47999 11.8061 4.11366 12.1168 4.97651L4.58995 7.68683ZM9.98559 11.48C12.4809 11.48 14.5889 9.88721 15.3812 7.68683L7.85429 4.97651C8.16497 4.11371 8.99163 3.47999 9.98559 3.47999V11.48ZM11.6177 10.3317H14.985V2.33167H11.6177V10.3317ZM11.2884 4.80344L9.2493 9.73583L16.6424 12.7923L18.6816 7.8599L11.2884 4.80344ZM12.9459 7.26405H12.3083V15.2641H12.9459V7.26405ZM12.3083 7.26405C9.77559 7.26405 7.72238 9.31726 7.72238 11.85H15.7224C15.7224 13.7355 14.1939 15.2641 12.3083 15.2641V7.26405ZM7.72238 11.85C7.72238 16.3413 11.3699 19.9888 15.8612 19.9888V11.9888C15.8375 11.9888 15.8235 11.9848 15.8122 11.98C15.7982 11.9741 15.781 11.9634 15.7644 11.9468C15.7478 11.9302 15.7371 11.913 15.7312 11.899C15.7264 11.8877 15.7224 11.8737 15.7224 11.85H7.72238ZM15.8612 19.9888C20.3525 19.9888 24 16.3412 24 11.85H16C16 11.8737 15.996 11.8877 15.9912 11.899C15.9852 11.913 15.9746 11.9302 15.958 11.9468C15.9414 11.9634 15.9242 11.9741 15.9102 11.98C15.8989 11.9848 15.8849 11.9888 15.8612 11.9888V19.9888ZM24 11.85C24 9.31726 21.9468 7.26405 19.4141 7.26405V15.2641C17.5285 15.2641 16 13.7355 16 11.85H24ZM4.13883 10.8169C4.64856 10.8169 5.05659 11.1756 5.15147 11.6474L-2.69155 13.2245C-2.0512 16.409 0.758084 18.8169 4.13883 18.8169V10.8169ZM1.22996 16.4359H7.0477V8.43593H1.22996V16.4359ZM3.12619 11.6474C3.22107 11.1756 3.6291 10.8169 4.13883 10.8169V18.8169C7.51957 18.8169 10.3289 16.409 10.9692 13.2245L3.12619 11.6474ZM5.78613 7.26405H2.49152V15.2641H5.78613V7.26405ZM6.18807 12.7923L7.83538 8.80777L0.44228 5.75128L-1.20502 9.73581L6.18807 12.7923ZM0.44228 8.80777L2.08958 12.7923L9.48268 9.73581L7.83538 5.75128L0.44228 8.80777ZM9.98555 2.30812C11.8846 2.30812 13.4232 3.84671 13.4232 5.74573H5.42316C5.42316 8.26499 7.46629 10.3081 9.98555 10.3081V2.30812ZM13.4232 5.74573C13.4232 7.64475 11.8846 9.18335 9.98555 9.18335V1.18335C7.46629 1.18335 5.42316 3.22648 5.42316 5.74573H13.4232ZM9.98555 9.18335C8.08667 9.18335 6.54793 7.64493 6.54793 5.74573H14.5479C14.5479 3.2263 12.5046 1.18335 9.98555 1.18335V9.18335ZM6.54793 5.74573C6.54793 3.84671 8.08653 2.30812 9.98555 2.30812V10.3081C12.5048 10.3081 14.5479 8.26499 14.5479 5.74573H6.54793ZM12.1646 8.80777L13.8119 12.7923L21.205 9.73581L19.5577 5.75128L12.1646 8.80777ZM17.5085 7.26405H14.2139V15.2641H17.5085V7.26405ZM17.9104 12.7923L19.5577 8.80777L12.1646 5.75128L10.5173 9.73581L17.9104 12.7923ZM15.8612 10.8169C16.3709 10.8169 16.7789 11.1756 16.8738 11.6474L9.0308 13.2245C9.67114 16.409 12.4804 18.8169 15.8612 18.8169V10.8169ZM12.9523 16.4359H18.77V8.43593H12.9523V16.4359ZM14.8485 11.6474C14.9434 11.1755 15.3514 10.8169 15.8612 10.8169V18.8169C19.2418 18.8169 22.0512 16.4091 22.6915 13.2245L14.8485 11.6474Z" fill="#282739" mask="url(#path-1-inside-1_357_8336)"/>
</svg>
